<svg width="33" height="41" viewBox="0 0 33 41" fill="none" xmlns="http://www.w3.org/2000/svg">
<path d="M22.6496 0H0.5V41H32.6167V9.9671L22.6496 0ZM23.05 2.3329L30.2838 9.56667H23.05V2.3329ZM1.86667 39.6333V1.36667H21.6833V10.9333H31.25V39.6333H1.86667Z" fill="#D6975A"/>
<path d="M25.1 14.35H14.1667C13.7895 14.35 13.4833 14.6555 13.4833 15.0333C13.4833 15.4112 13.7895 15.7167 14.1667 15.7167H25.1C25.4772 15.7167 25.7833 15.4112 25.7833 15.0333C25.7833 14.6555 25.4772 14.35 25.1 14.35Z" fill="#D6975A"/>
<path d="M11.6896 12.4496L8.75058 14.801L7.81646 13.8669C7.54928 13.5997 7.11741 13.5997 6.85023 13.8669C6.58305 14.1341 6.58305 14.5659 6.85023 14.8331L8.21689 16.1998C8.34946 16.3324 8.5244 16.4 8.70001 16.4C8.85035 16.4 9.00136 16.3508 9.12641 16.2503L12.5431 13.517C12.8383 13.2806 12.8854 12.8508 12.6497 12.5562C12.4146 12.261 11.9841 12.2139 11.6896 12.4496Z" fill="#D6975A"/>
<path d="M25.1 21.8667H14.1667C13.7895 21.8667 13.4833 22.1721 13.4833 22.55C13.4833 22.9279 13.7895 23.2333 14.1667 23.2333H25.1C25.4772 23.2333 25.7833 22.9279 25.7833 22.55C25.7833 22.1721 25.4772 21.8667 25.1 21.8667Z" fill="#D6975A"/>
<path d="M11.6896 19.9663L8.75058 22.3177L7.81646 21.3835C7.54928 21.1164 7.11741 21.1164 6.85023 21.3835C6.58305 21.6507 6.58305 22.0826 6.85023 22.3498L8.21689 23.7164C8.34946 23.849 8.5244 23.9167 8.70001 23.9167C8.85035 23.9167 9.00136 23.8675 9.12641 23.767L12.5431 21.0337C12.8383 20.7972 12.8854 20.3674 12.6497 20.0729C12.4146 19.7777 11.9841 19.7306 11.6896 19.9663Z" fill="#D6975A"/>
<path d="M25.1 29.3833H14.1667C13.7895 29.3833 13.4833 29.6888 13.4833 30.0667C13.4833 30.4445 13.7895 30.75 14.1667 30.75H25.1C25.4772 30.75 25.7833 30.4445 25.7833 30.0667C25.7833 29.6888 25.4772 29.3833 25.1 29.3833Z" fill="#D6975A"/>
<path d="M11.6896 27.483L8.75058 29.8343L7.81646 28.9002C7.54928 28.633 7.11741 28.633 6.85023 28.9002C6.58305 29.1674 6.58305 29.5993 6.85023 29.8665L8.21689 31.2331C8.34946 31.3657 8.5244 31.4333 8.70001 31.4333C8.85035 31.4333 9.00136 31.3841 9.12641 31.2837L12.5431 28.5504C12.8383 28.3139 12.8854 27.8841 12.6497 27.5896C12.4146 27.2944 11.9841 27.2472 11.6896 27.483Z" fill="#D6975A"/>
</svg>
