<svg width="36" height="45" viewBox="0 0 36 45" fill="none" xmlns="http://www.w3.org/2000/svg">
<path d="M25.6036 2.20695L24.75 1.35339V2.5605V10.5V11H25.25H33.1895H34.3966L33.5431 10.1464L25.6036 2.20695ZM1.5 43.5V44H2H34.25H34.75V43.5V12V11.5H34.25H24.25V1.5V1H23.75H2H1.5V1.5V43.5ZM35.25 11.1466V44.5H1V0.5H24.6034L35.25 11.1466Z" stroke="#D6975A"/>
<path d="M14.75 12.25H8C7.86139 12.25 7.75 12.1386 7.75 12C7.75 11.8614 7.86139 11.75 8 11.75H14.75C14.8886 11.75 15 11.8614 15 12C15 12.1386 14.8886 12.25 14.75 12.25Z" stroke="#D6975A"/>
<path d="M11.75 18.25H8C7.86139 18.25 7.75 18.1386 7.75 18C7.75 17.8614 7.86139 17.75 8 17.75H11.75C11.8886 17.75 12 17.8614 12 18C12 18.1386 11.8886 18.25 11.75 18.25Z" stroke="#D6975A"/>
<path d="M24.5 18.25H19.25C19.1114 18.25 19 18.1386 19 18C19 17.8614 19.1114 17.75 19.25 17.75H24.5C24.6386 17.75 24.75 17.8614 24.75 18C24.75 18.1386 24.6386 18.25 24.5 18.25Z" stroke="#D6975A"/>
<path d="M15.3114 17.838L15.3187 17.831L15.3257 17.8238C15.4032 17.7442 15.5824 17.7356 15.6772 17.8197C15.7246 17.8732 15.75 17.9428 15.75 18C15.75 18.0601 15.7218 18.1284 15.678 18.1724L15.6779 18.1724L15.6709 18.1797C15.6288 18.2238 15.5674 18.25 15.5 18.25C15.4423 18.25 15.3707 18.2236 15.317 18.1748C15.2759 18.1313 15.25 18.0678 15.25 18C15.25 17.9267 15.2788 17.8688 15.3114 17.838Z" stroke="#D6975A"/>
<path d="M28.5 18C28.5 18.0552 28.4757 18.124 28.4286 18.1786C28.374 18.2256 28.3052 18.25 28.25 18.25C28.1939 18.25 28.1245 18.225 28.0713 18.1786C28.0246 18.1251 28 18.0565 28 18C28 17.9416 28.0255 17.8725 28.0723 17.8201C28.1629 17.7392 28.3363 17.7391 28.4272 17.8197C28.4746 17.8732 28.5 17.9428 28.5 18Z" stroke="#D6975A"/>
<path d="M11.75 23.75H17C17.1386 23.75 17.25 23.8614 17.25 24C17.25 24.1386 17.1386 24.25 17 24.25H11.75C11.6114 24.25 11.5 24.1386 11.5 24C11.5 23.8614 11.6114 23.75 11.75 23.75Z" stroke="#D6975A"/>
<path d="M8.18293 24.1748C8.12773 24.2243 8.05666 24.25 8 24.25C7.94387 24.25 7.87449 24.225 7.82129 24.1786C7.7746 24.1251 7.75 24.0565 7.75 24C7.75 23.925 7.7753 23.8675 7.81814 23.824C7.90886 23.738 8.09026 23.7378 8.18133 23.8235C8.22315 23.8667 8.25 23.9312 8.25 24C8.25 24.0662 8.22446 24.1302 8.18293 24.1748Z" stroke="#D6975A"/>
<path d="M10.5896 30.568L10.5896 30.568C9.17263 31.3056 8.65407 32.7242 8.45825 34.3701L8.34904 35.288L7.64057 34.6942L7.17509 34.3044L6.70916 33.9143C6.63344 33.8508 6.56662 33.8395 6.5074 33.8463C6.4377 33.8544 6.36012 33.8913 6.29918 33.952C6.23709 34.0138 6.22018 34.0709 6.21907 34.0981C6.21906 34.0983 6.21904 34.0986 6.21903 34.0989C6.21852 34.1094 6.2167 34.1468 6.29114 34.2092L5.96975 34.5922M10.5896 30.568L10.8845 30.9771C9.91418 31.4822 9.41956 32.3117 9.16416 33.1925C8.91413 34.0548 8.88178 35.0075 8.85479 35.8084L8.85478 35.8088C8.85038 35.9422 8.78616 36.0057 8.71054 36.035C8.62273 36.069 8.50076 36.0605 8.39526 35.9721C7.69397 35.3841 6.99196 34.7961 6.29077 34.2089L5.96975 34.5922M10.5896 30.568C10.6783 30.5218 10.7393 30.5284 10.7852 30.5453M10.5896 30.568L10.7852 30.5453M5.96975 34.5922C6.671 35.1795 7.37301 35.7675 8.07426 36.3555L7.49597 33.921C7.34073 33.791 7.18549 33.6611 7.03025 33.531C6.29525 32.9152 5.22875 33.9705 5.96975 34.5922ZM10.7852 30.5453C10.8422 30.5664 10.9044 30.6165 10.9475 30.6904M10.7852 30.5453L10.9475 30.6904M10.9475 30.6904C10.9911 30.765 10.9965 30.8305 10.989 30.8674M10.9475 30.6904L10.989 30.8674M10.989 30.8674C10.9846 30.8887 10.9724 30.9312 10.8847 30.977L10.989 30.8674Z" stroke="#D6975A"/>
<path d="M15.4593 33.6033L15.4591 33.6033C15.2651 33.6483 15.0461 33.7491 14.7738 33.8857C14.7423 33.9014 14.71 33.9178 14.6769 33.9346C14.4461 34.0512 14.1778 34.187 13.9154 34.2759C13.6113 34.3789 13.2348 34.449 12.852 34.3144C12.4585 34.176 12.1643 33.8598 11.9458 33.4169L11.9458 33.4169C11.9021 33.3282 11.8627 33.3197 11.8482 33.3166C11.8169 33.3099 11.7545 33.3134 11.6794 33.3574C11.6054 33.4007 11.5524 33.4646 11.529 33.5262C11.5095 33.5772 11.5033 33.6419 11.5474 33.7312L11.5475 33.7315C11.8648 34.3753 12.4617 34.8165 13.1634 34.9054C13.516 34.95 13.8349 34.9026 14.1852 34.7661L14.1856 34.766C14.184 34.7666 14.1907 34.764 14.2086 34.7549C14.2255 34.7464 14.2471 34.7349 14.2742 34.7198C14.3271 34.6903 14.3892 34.6538 14.4639 34.61L14.474 34.6041C14.6265 34.5146 14.8216 34.4003 15.0185 34.3035C15.2066 34.211 15.4419 34.111 15.6716 34.0792C15.9006 34.0476 16.2922 34.0721 16.5035 34.4504L15.4593 33.6033ZM15.4593 33.6033C16.0774 33.4598 16.649 33.6855 16.9257 34.1812L16.9258 34.1815M15.4593 33.6033L16.9258 34.1815M16.9258 34.1815C16.9747 34.2689 16.9675 34.3248 16.9539 34.3632M16.9258 34.1815L16.9539 34.3632M16.9539 34.3632C16.9359 34.4139 16.8899 34.4735 16.8161 34.5166M16.9539 34.3632L16.8161 34.5166M16.8161 34.5166C16.742 34.5598 16.6725 34.5676 16.6283 34.5592M16.8161 34.5166L16.6283 34.5592M16.6283 34.5592C16.5985 34.5535 16.552 34.5371 16.5036 34.4505L16.6283 34.5592Z" stroke="#D6975A"/>
<path d="M23.117 22.599C23.0442 22.629 22.895 22.6695 22.727 22.5885C21.9613 22.2263 21.0785 22.377 20.477 22.977L23.117 22.599ZM23.117 22.599C23.1905 22.5682 23.3225 22.491 23.3848 22.3162C23.669 21.516 24.401 21 25.25 21C26.099 21 26.831 21.516 27.1152 22.3162C27.1775 22.491 27.3088 22.5682 27.383 22.599M23.117 22.599L30.4115 25.227C30.7753 24.4605 30.623 23.5777 30.023 22.977C29.4222 22.3777 28.5388 22.2248 27.7738 22.5885C27.6043 22.6688 27.4558 22.629 27.383 22.599M27.383 22.599L27.383 22.599L27.383 22.599ZM30.6837 29.6152C31.484 29.331 32 28.599 32 27.75C32 26.901 31.484 26.169 30.6837 25.8848V29.6152ZM30.6837 29.6152C30.509 29.6775 30.4318 29.8088 30.401 29.883M30.6837 29.6152L30.401 29.883M30.401 29.883C30.371 29.9565 30.332 30.105 30.4115 30.2738M30.401 29.883L30.4115 30.2738M30.4115 30.2738C30.7753 31.0395 30.623 31.9222 30.023 32.523L30.4115 30.2738ZM23.124 32.385C23.1293 32.3862 23.1349 32.3875 23.1408 32.3889L23.0203 32.871H23.1299L23.314 32.4414C23.383 32.471 23.4862 32.524 23.5882 32.6152L23.5886 32.6155C23.6934 32.7094 23.7942 32.8409 23.8562 33.0172C24.0697 33.6173 24.6126 34 25.25 34C25.8877 34 26.4308 33.6169 26.6441 33.0164L26.9993 33.1425L23.5 33.1428V32.871H23.3598H23.3596H23.1301L23.3174 32.4429C23.2439 32.4108 23.166 32.3935 23.124 32.385ZM23.124 32.385C23.1058 32.381 23.0907 32.3787 23.0808 32.3773C23.0684 32.3755 23.0572 32.3743 23.0552 32.3741L22.5 32.3124V32.871V38.6895V39.8966L23.3536 39.0431L25.25 37.1466L23.5 38.6895H23L22.6464 38.3359L23 37.9824V33.5638C22.9701 33.4988 22.9428 33.432 22.9181 33.3636L22.9098 33.362L22.8983 33.3591C22.9055 33.3609 22.9122 33.3624 22.918 33.3635C22.9165 33.3594 22.9151 33.3553 22.9136 33.3511L22.9129 33.3491C22.9129 33.349 22.9128 33.349 22.9128 33.349C22.9128 33.349 22.9129 33.349 22.9129 33.3491C22.913 33.3494 22.9133 33.35 22.9139 33.351C22.9143 33.3518 22.9149 33.3527 22.9156 33.3538C22.9163 33.3548 22.917 33.3557 22.9177 33.3565C22.9187 33.3577 22.9196 33.3588 22.9205 33.3596C22.9208 33.3599 22.9211 33.3602 22.9214 33.3605L22.9224 33.3594L22.9374 33.3426L22.9402 33.3395L22.9491 33.3296L22.9546 33.28L22.9557 33.2696L22.9749 33.097L22.9838 33.0167L23 32.871H23.0201L23.1176 32.3837C23.1196 32.3841 23.1217 32.3845 23.124 32.385ZM30.1827 27.2992L30.3483 26.8274C30.941 27.0354 31 27.5754 31 27.75C31 27.9264 30.94 28.4638 30.3484 28.6735C29.9553 28.8129 29.6373 29.1147 29.4778 29.5004L29.4775 29.5009C29.3173 29.8871 29.328 30.3259 29.5078 30.704C29.7749 31.2647 29.4472 31.6848 29.3166 31.8155C29.1868 31.947 28.8765 32.1647 28.4463 32.0817L28.4184 32.0763L28.3914 32.0678L28.2264 32.0161L28.1979 32.0071L28.1706 31.9949C28.1537 31.9872 28.1447 31.9847 28.1202 31.9779C28.1004 31.9724 28.0704 31.964 28.0178 31.9478L28.0153 31.947C27.9937 31.9402 27.974 31.9333 27.9583 31.9278L27.9365 31.9199L27.9189 31.9135C27.9034 31.908 27.8962 31.9057 27.8934 31.9049C27.8716 31.9003 27.8531 31.8985 27.8161 31.8949C27.7948 31.8928 27.7673 31.8902 27.7296 31.886L27.729 31.8859C27.7059 31.8834 27.6847 31.8804 27.6676 31.878L27.6242 31.8717C27.6124 31.87 27.6047 31.869 27.5988 31.8685C27.5946 31.868 27.5923 31.8679 27.5915 31.8679C27.5723 31.8675 27.5631 31.8687 27.5422 31.8712C27.5222 31.8737 27.4915 31.8775 27.4312 31.8825C27.4302 31.8826 27.4293 31.8827 27.4283 31.8828L30.1827 27.2992ZM30.1827 27.2992L30.3499 26.828C29.9571 26.6887 29.6388 26.3863 29.4792 26.0009L29.4791 26.0008C29.3188 25.614 29.33 25.1758 29.5094 24.7979L29.5095 24.7978C29.7762 24.2353 29.4484 23.8161 29.3176 23.6855C29.188 23.5546 28.7648 23.2222 28.2029 23.4928C27.824 23.6725 27.3855 23.6834 27.0023 23.523L27.0004 23.5222C26.6152 23.3629 26.3137 23.0451 26.1734 22.6513M30.1827 27.2992C30.4692 27.3997 30.5 27.648 30.5 27.75C30.5 27.852 30.4693 28.1003 30.1813 28.2023C29.6548 28.389 29.2295 28.7925 29.0157 29.3092C28.8012 29.826 28.8155 30.4125 29.0563 30.9187L22.0835 23.9423C21.806 23.8125 21.6102 23.964 21.5382 24.0367M27.7843 31.389C27.8021 31.391 27.8201 31.3927 27.838 31.3945C27.8952 31.4001 27.9525 31.4057 28.0085 31.4182C28.0414 31.4261 28.0734 31.4377 28.1055 31.4493C28.1253 31.4565 28.1452 31.4637 28.1653 31.47L27.7843 31.389ZM27.7843 31.389C27.7629 31.3866 27.7417 31.3835 27.7206 31.3804M27.7843 31.389L27.7206 31.3804M21.5382 24.0367L21.1865 23.6814C21.1859 23.682 21.1853 23.6826 21.1847 23.6832M21.5382 24.0367C21.4655 24.1087 21.3125 24.306 21.4437 24.5813M21.5382 24.0367L21.4437 24.5813M21.1847 23.6832C21.3167 23.5507 21.7338 23.2268 22.2953 23.4893L22.2982 23.4907L22.2982 23.4907C22.6759 23.6703 23.1143 23.6822 23.4997 23.5213L23.5009 23.5208C23.8863 23.3612 24.1887 23.0429 24.328 22.6501L24.7992 22.8173L24.3274 22.6517C24.5354 22.059 25.0754 22 25.25 22C25.4264 22 25.9636 22.0599 26.1734 22.6513M21.1847 23.6832C21.055 23.8125 20.7243 24.2334 20.9922 24.796M21.1847 23.6832L20.9922 24.796M26.1734 22.6513C26.1734 22.6515 26.1735 22.6516 26.1736 22.6518L25.7023 22.8187L26.1733 22.651C26.1733 22.6511 26.1733 22.6512 26.1734 22.6513ZM20.9922 24.796C21.172 25.1741 21.1827 25.6129 21.0225 25.9991L21.0222 25.9996C20.8627 26.3852 20.5448 26.687 20.1518 26.8264L20.9922 24.796ZM21.4437 24.5813C21.6845 25.0875 21.6988 25.674 21.4843 26.1908L21.4437 24.5813ZM23.4999 31.9806C23.4892 31.9773 23.4767 31.9731 23.4633 31.968L23.4622 31.9676C23.3699 31.9322 23.2884 31.9072 23.2132 31.8928L23.211 31.8924C23.1634 31.883 23.1151 31.8802 23.0204 31.8748L23.0075 31.8741C22.9846 31.8729 22.9649 31.8709 22.9505 31.8692C22.9405 31.8681 22.93 31.8667 22.9231 31.8657C22.7067 31.8654 22.5127 31.9082 22.3602 31.9825L22.3264 31.999L22.2905 32.0102L22.1203 32.0635L22.1011 32.0695L22.0814 32.0739C21.6354 32.1749 21.3128 31.9447 21.1838 31.8152C21.0535 31.6853 20.724 31.2656 20.9912 30.7022L20.9913 30.7021C21.1707 30.3242 21.1819 29.886 21.0216 29.4992L21.0216 29.4991C20.8619 29.1137 20.5437 28.8113 20.1509 28.672L20.318 28.2008L20.1529 28.6727C19.5594 28.4651 19.5 27.9251 19.5 27.75C19.5 27.5736 19.56 27.0362 20.1516 26.8265L23.4999 31.9806ZM23.4999 31.9806C23.5053 31.9839 23.5116 31.9876 23.5172 31.9908C23.5311 31.9989 23.5506 32.0098 23.5737 32.0211L23.5744 32.0215C23.5813 32.0248 23.588 32.0281 23.5944 32.0312C23.6857 32.0756 23.7304 32.0974 23.7693 32.1244L23.7704 32.1252C23.8427 32.1751 23.9132 32.2363 23.9852 32.3096L23.9852 32.3096L23.9882 32.3126C24.0011 32.3255 24.0131 32.3362 24.0227 32.3444C24.1556 32.4891 24.2596 32.6599 24.3265 32.8484L23.4999 31.9806ZM26.9301 32.0188C26.8282 32.0681 26.7735 32.0949 26.7273 32.1267L26.7269 32.127C26.6596 32.1734 26.5915 32.233 26.5186 32.3065L26.5171 32.308C26.5011 32.324 26.4866 32.3366 26.4767 32.3448C26.3436 32.4896 26.2391 32.6615 26.1718 32.8505L25.7008 32.6827M26.9301 32.0188L24.3266 32.8486C24.5363 33.4401 25.0736 33.5 25.25 33.5C25.4246 33.5 25.9646 33.441 26.1726 32.8483L25.7008 32.6827M26.9301 32.0188C26.9528 32.008 26.9719 31.9976 26.9857 31.9897C26.9966 31.9835 27.008 31.9767 27.0139 31.9731M26.9301 32.0188L27.0139 31.9731M25.7008 32.6827C25.7945 32.4195 25.9422 32.181 26.1312 31.9823L25.25 33C25.352 33 25.6003 32.9692 25.7008 32.6827ZM27.0139 31.9731L27.0253 31.9685L27.0139 31.9731ZM27.7206 31.3804C27.6816 31.3747 27.6429 31.369 27.6035 31.368L27.7206 31.3804ZM30.516 26.3558L30.5164 26.3559C31.1169 26.5692 31.5 27.1123 31.5 27.75C31.5 28.3877 31.1169 28.9308 30.5164 29.1441L30.516 29.1442C30.16 29.271 30.0007 29.5428 29.939 29.6917L29.9381 29.6941C29.8789 29.839 29.7977 30.1441 29.9592 30.4868L29.9599 30.4883C30.2328 31.0629 30.12 31.7183 29.6692 32.1697L29.669 32.1699C29.4519 32.3875 29.1859 32.5231 28.9051 32.5773L28.5 32.6556V33.0682V41.1034L25.6036 38.2069L25.25 37.8534L24.8964 38.2069L22 41.1034V33.069V32.6572L21.5958 32.5783C21.3153 32.5235 21.0492 32.3874 20.8304 32.1693C20.3803 31.7183 20.2673 31.0636 20.5397 30.4885C20.7043 30.1438 20.6201 29.8365 20.5619 29.6941L20.5619 29.694L20.5603 29.69C20.4995 29.5447 20.3409 29.2714 19.984 29.1442L19.9836 29.1441C19.3831 28.9308 19 28.3877 19 27.75C19 27.1123 19.3831 26.5692 19.9836 26.3559L19.984 26.3558C20.34 26.229 20.4993 25.9572 20.561 25.8083L20.561 25.8083L20.5619 25.8059C20.6211 25.661 20.7023 25.3559 20.5408 25.0132L20.5401 25.0117C20.2673 24.4373 20.3799 23.782 20.8304 23.3307C21.2818 22.8807 21.9368 22.7684 22.5119 23.0399C22.8575 23.2056 23.1662 23.1196 23.3076 23.0612L23.3076 23.0612L23.31 23.0603C23.4553 22.9995 23.7286 22.8409 23.8558 22.484L23.8559 22.4836C24.0692 21.8831 24.6123 21.5 25.25 21.5C25.8877 21.5 26.4308 21.8831 26.6441 22.4836L26.6442 22.484C26.771 22.84 27.0428 22.9993 27.1917 23.061L27.1924 23.0612C27.3369 23.1208 27.6431 23.2036 27.9877 23.0404L27.9885 23.0401C28.5617 22.7675 29.2179 22.8804 29.6696 23.3307C30.1197 23.7817 30.2327 24.4364 29.9603 25.0115C29.7957 25.3562 29.8799 25.6635 29.9381 25.8059L29.9381 25.806L29.9397 25.81C30.0005 25.9553 30.1591 26.2286 30.516 26.3558ZM23.5 33.4481V33.1434L26.9993 33.4495C26.6602 34.0964 26.0009 34.5 25.25 34.5C24.4986 34.5 23.8388 34.0958 23.5 33.4481ZM22.941 33.3392L22.949 33.3303L22.9483 33.3367L22.948 33.3389L22.9448 33.3679C22.9434 33.3678 22.9414 33.3675 22.9393 33.3672C22.9383 33.367 22.937 33.3669 22.9356 33.3666C22.9325 33.3656 22.9282 33.364 22.9229 33.3618C22.9227 33.3616 22.9224 33.3613 22.9221 33.3611C22.922 33.361 22.9219 33.3609 22.9218 33.3608L22.9223 33.3602L22.9382 33.3424L22.941 33.3392ZM24.0508 32.3668C24.051 32.367 24.051 32.367 24.0507 32.3668L24.0508 32.3668Z" stroke="#D6975A"/>
</svg>
