<svg width="50" height="50" viewBox="0 0 50 50" fill="none" xmlns="http://www.w3.org/2000/svg">
<path d="M41.0324 27.1547C41.0324 27.029 41.1343 26.927 41.26 26.927C41.3858 26.927 41.4876 27.0289 41.4876 27.1547C41.4876 28.1904 40.6441 29.0339 39.6084 29.0339C38.5728 29.0339 37.7292 28.1904 37.7292 27.1547C37.7292 27.029 37.8312 26.927 37.9569 26.927C38.0826 26.927 38.1845 27.0289 38.1845 27.1547C38.1845 27.9403 38.823 28.5786 39.6084 28.5786C40.3941 28.5786 41.0324 27.9403 41.0324 27.1547Z" stroke="#D6975A"/>
<mask id="path-2-inside-1" fill="white">
<path d="M48.0902 26.5459L46.0422 25.8898C45.7799 25.8057 45.5731 25.5964 45.4893 25.3297C45.0576 23.9573 44.4062 22.6689 43.5532 21.5002C43.1645 20.9675 42.7321 20.4588 42.2599 19.9745C42.562 18.649 42.7263 17.1489 42.705 15.8529C42.6745 13.9989 42.304 12.9115 41.5724 12.5283C41.1783 12.3217 39.9791 11.6939 33.4882 14.6652C33.3345 14.7355 33.1909 14.8222 33.058 14.9214C32.6204 14.8038 32.1731 14.695 31.7231 14.5974C31.6689 14.5855 31.6131 14.5751 31.5585 14.5636C32.0845 13.4145 32.3916 12.1666 32.4493 10.8783C32.4673 10.4768 32.1564 10.1367 31.7549 10.1188C31.3544 10.0989 31.0133 10.4116 30.9954 10.8132C30.9006 12.9314 30.0219 14.9245 28.5213 16.4252C27.6247 17.3218 26.5749 17.973 25.4561 18.3832C23.5157 18.1109 21.5394 18.1109 19.599 18.3832C18.4801 17.973 17.4304 17.3218 16.5338 16.4252C14.9328 14.8242 14.0511 12.6956 14.0511 10.4314C14.0511 8.16718 14.9328 6.03867 16.5338 4.43769C18.1348 2.83662 20.2635 1.95488 22.5275 1.95488C24.7916 1.95488 26.9203 2.83662 28.5213 4.43769C29.1646 5.08105 29.6963 5.81523 30.1015 6.61963C30.2822 6.97861 30.7198 7.12314 31.0787 6.94228C31.4377 6.76162 31.5821 6.32402 31.4014 5.96513C30.9265 5.02187 30.3037 4.16181 29.5505 3.40849C27.6746 1.53262 25.1805 0.499512 22.5276 0.499512C19.8748 0.499512 17.3807 1.53262 15.5048 3.40849C13.6289 5.28447 12.5958 7.77851 12.5958 10.4313C12.5958 13.0842 13.6289 15.5783 15.5048 17.4542C16.0459 17.9953 16.6346 18.4606 17.2572 18.8505C17.2574 18.8505 17.2576 18.8504 17.2578 18.8504C16.8054 18.968 16.3563 19.1 15.9123 19.2484C15.5312 19.3759 15.3255 19.7881 15.4529 20.1693C15.5803 20.5505 15.9927 20.7561 16.3737 20.6288C20.3421 19.3021 24.7132 19.3021 28.6815 20.6288C28.7581 20.6544 28.8358 20.6665 28.9123 20.6665C29.2167 20.6665 29.5005 20.4739 29.6023 20.1693C29.7298 19.7882 29.5241 19.3759 29.143 19.2484C28.6989 19.1 28.2499 18.9679 27.7975 18.8504C27.7977 18.8504 27.7979 18.8505 27.798 18.8505C28.4208 18.4606 29.0094 17.9953 29.5505 17.4542C30.0292 16.9755 30.4518 16.4527 30.8187 15.8972C31.0192 15.9361 31.2184 15.9769 31.4146 16.0195C31.6759 16.0763 31.936 16.1372 32.1938 16.2012C32.1857 16.2328 32.1774 16.2643 32.1707 16.2965C31.8158 17.9806 31.8389 19.47 32.2392 20.7232C32.5989 21.8497 33.2482 22.7623 34.1688 23.4358C35.2539 24.2296 36.5639 24.5724 37.7505 24.5724C38.6436 24.5724 39.4669 24.3781 40.0716 24.0356C40.7556 23.6482 41.3286 22.8319 41.7822 21.6063C41.9919 21.8511 42.1906 22.1017 42.3779 22.3584C43.1374 23.3988 43.7172 24.5455 44.1012 25.7664C44.3267 26.4835 44.8864 27.0477 45.5984 27.276L47.6465 27.932C48.1839 28.1042 48.5449 28.5988 48.5449 29.1631V32.5591C48.5449 33.1233 48.1839 33.618 47.6465 33.7901L44.3468 34.8471C43.8188 35.0163 43.3721 35.3791 43.0888 35.8687C41.7924 38.1092 39.7542 39.9632 37.0305 41.3793C36.7158 41.543 36.4979 41.8359 36.4322 42.183L35.3754 47.779C35.3462 47.9332 35.2111 48.045 35.0542 48.045H31.618C31.461 48.045 31.326 47.9331 31.2968 47.779L30.7114 44.6863C30.5962 44.0778 30.0255 43.6736 29.4112 43.7667C27.9311 43.9905 26.4059 44.1039 24.8782 44.1039C23.7417 44.1039 22.6197 44.0405 21.5433 43.9154C20.948 43.847 20.3936 44.2527 20.2823 44.8404L19.7261 47.779C19.6969 47.9332 19.5618 48.045 19.4049 48.045H15.9687C15.8117 48.045 15.6767 47.9331 15.6471 47.7766L14.6295 42.4913C14.564 42.1508 14.3501 41.8612 14.0424 41.6969C9.39942 39.2182 6.94531 35.0772 6.94531 29.7218C6.94531 27.0159 7.5373 24.6232 8.70479 22.6099C9.79424 20.7311 11.3854 19.1777 13.4342 17.9927C13.782 17.7914 13.9009 17.3463 13.6997 16.9983C13.4985 16.6505 13.0534 16.5318 12.7055 16.7328C8.73291 19.0308 6.33691 22.5762 5.67725 27.0791V27.079C5.60723 27.0726 5.53711 27.0666 5.46729 27.0594C5.47998 26.5735 5.39209 26.0833 5.20068 25.6075C4.77852 24.5581 3.91133 23.8007 2.99131 23.6779C2.26631 23.5808 1.57637 23.8887 1.09756 24.5213C0.40332 25.4387 0.516504 26.1646 0.733594 26.6121C1.1001 27.3673 2.04219 27.9015 3.60557 28.2373C3.5626 28.3016 3.51533 28.3663 3.46357 28.4312C2.53984 29.5897 1.45156 29.8459 0.744922 29.87C0.33125 29.884 0 30.2161 0 30.6301V30.6336C0 31.0419 0.322168 31.3749 0.730078 31.3935C0.782324 31.396 0.836914 31.3972 0.89375 31.3972C1.78789 31.3972 3.22295 31.0675 4.60166 29.3387C4.81934 29.0658 4.99668 28.7779 5.13301 28.4805C5.27031 28.496 5.40225 28.5093 5.52861 28.521C5.52861 28.5207 5.52861 28.5205 5.52871 28.5202C5.50391 28.9145 5.49014 29.3146 5.49014 29.7218C5.49014 32.7518 6.2125 35.4535 7.63701 37.752C8.95049 39.8712 10.8311 41.6063 13.2283 42.9112L14.2176 48.0495C14.3767 48.8901 15.1131 49.5003 15.9687 49.5003H19.4049C20.2604 49.5003 20.9969 48.8901 21.156 48.0495L21.6589 45.3925C22.7034 45.5031 23.7849 45.5592 24.8781 45.5592C26.3781 45.5592 27.8764 45.4547 29.3365 45.2484L29.8667 48.0497C30.0259 48.8903 30.7623 49.5004 31.6178 49.5004H35.054C35.9096 49.5004 36.646 48.8902 36.8052 48.0493L37.8342 42.601C40.7412 41.0638 42.9324 39.0444 44.3482 36.5975C44.4503 36.4212 44.6074 36.2918 44.7906 36.2331L48.0902 35.1762C49.2325 34.81 50 33.7584 50 32.5589V29.1629C50 27.9635 49.2325 26.9118 48.0902 26.5459ZM41.1404 17.8977C40.8604 20.2929 40.1091 22.3417 39.3542 22.7692C38.4962 23.2553 36.5152 23.3491 35.0279 22.2611C33.5389 21.1719 33.0433 19.2131 33.5945 16.5965C33.5945 16.5964 33.5945 16.5964 33.5945 16.5964C33.6499 16.3336 33.8366 16.1062 34.0939 15.9885C37.7369 14.3209 39.8372 13.7755 40.6175 13.7755C40.7353 13.7755 40.8229 13.7879 40.8813 13.8107C41.1157 14.0605 41.4231 15.4806 41.1404 17.8977ZM2.04307 25.9766C1.96777 25.8214 2.14551 25.5484 2.2582 25.3994C2.43682 25.1635 2.60137 25.1152 2.72568 25.1152C2.75195 25.1152 2.77646 25.1174 2.79893 25.1204C3.1335 25.165 3.60225 25.5332 3.85059 26.1505C3.90908 26.2958 3.98506 26.5365 4.00283 26.8367C2.99551 26.628 2.21289 26.3271 2.04307 25.9766Z"/>
</mask>
<path d="M48.0902 26.5459L46.0422 25.8898C45.7799 25.8057 45.5731 25.5964 45.4893 25.3297C45.0576 23.9573 44.4062 22.6689 43.5532 21.5002C43.1645 20.9675 42.7321 20.4588 42.2599 19.9745C42.562 18.649 42.7263 17.1489 42.705 15.8529C42.6745 13.9989 42.304 12.9115 41.5724 12.5283C41.1783 12.3217 39.9791 11.6939 33.4882 14.6652C33.3345 14.7355 33.1909 14.8222 33.058 14.9214C32.6204 14.8038 32.1731 14.695 31.7231 14.5974C31.6689 14.5855 31.6131 14.5751 31.5585 14.5636C32.0845 13.4145 32.3916 12.1666 32.4493 10.8783C32.4673 10.4768 32.1564 10.1367 31.7549 10.1188C31.3544 10.0989 31.0133 10.4116 30.9954 10.8132C30.9006 12.9314 30.0219 14.9245 28.5213 16.4252C27.6247 17.3218 26.5749 17.973 25.4561 18.3832C23.5157 18.1109 21.5394 18.1109 19.599 18.3832C18.4801 17.973 17.4304 17.3218 16.5338 16.4252C14.9328 14.8242 14.0511 12.6956 14.0511 10.4314C14.0511 8.16718 14.9328 6.03867 16.5338 4.43769C18.1348 2.83662 20.2635 1.95488 22.5275 1.95488C24.7916 1.95488 26.9203 2.83662 28.5213 4.43769C29.1646 5.08105 29.6963 5.81523 30.1015 6.61963C30.2822 6.97861 30.7198 7.12314 31.0787 6.94228C31.4377 6.76162 31.5821 6.32402 31.4014 5.96513C30.9265 5.02187 30.3037 4.16181 29.5505 3.40849C27.6746 1.53262 25.1805 0.499512 22.5276 0.499512C19.8748 0.499512 17.3807 1.53262 15.5048 3.40849C13.6289 5.28447 12.5958 7.77851 12.5958 10.4313C12.5958 13.0842 13.6289 15.5783 15.5048 17.4542C16.0459 17.9953 16.6346 18.4606 17.2572 18.8505C17.2574 18.8505 17.2576 18.8504 17.2578 18.8504C16.8054 18.968 16.3563 19.1 15.9123 19.2484C15.5312 19.3759 15.3255 19.7881 15.4529 20.1693C15.5803 20.5505 15.9927 20.7561 16.3737 20.6288C20.3421 19.3021 24.7132 19.3021 28.6815 20.6288C28.7581 20.6544 28.8358 20.6665 28.9123 20.6665C29.2167 20.6665 29.5005 20.4739 29.6023 20.1693C29.7298 19.7882 29.5241 19.3759 29.143 19.2484C28.6989 19.1 28.2499 18.9679 27.7975 18.8504C27.7977 18.8504 27.7979 18.8505 27.798 18.8505C28.4208 18.4606 29.0094 17.9953 29.5505 17.4542C30.0292 16.9755 30.4518 16.4527 30.8187 15.8972C31.0192 15.9361 31.2184 15.9769 31.4146 16.0195C31.6759 16.0763 31.936 16.1372 32.1938 16.2012C32.1857 16.2328 32.1774 16.2643 32.1707 16.2965C31.8158 17.9806 31.8389 19.47 32.2392 20.7232C32.5989 21.8497 33.2482 22.7623 34.1688 23.4358C35.2539 24.2296 36.5639 24.5724 37.7505 24.5724C38.6436 24.5724 39.4669 24.3781 40.0716 24.0356C40.7556 23.6482 41.3286 22.8319 41.7822 21.6063C41.9919 21.8511 42.1906 22.1017 42.3779 22.3584C43.1374 23.3988 43.7172 24.5455 44.1012 25.7664C44.3267 26.4835 44.8864 27.0477 45.5984 27.276L47.6465 27.932C48.1839 28.1042 48.5449 28.5988 48.5449 29.1631V32.5591C48.5449 33.1233 48.1839 33.618 47.6465 33.7901L44.3468 34.8471C43.8188 35.0163 43.3721 35.3791 43.0888 35.8687C41.7924 38.1092 39.7542 39.9632 37.0305 41.3793C36.7158 41.543 36.4979 41.8359 36.4322 42.183L35.3754 47.779C35.3462 47.9332 35.2111 48.045 35.0542 48.045H31.618C31.461 48.045 31.326 47.9331 31.2968 47.779L30.7114 44.6863C30.5962 44.0778 30.0255 43.6736 29.4112 43.7667C27.9311 43.9905 26.4059 44.1039 24.8782 44.1039C23.7417 44.1039 22.6197 44.0405 21.5433 43.9154C20.948 43.847 20.3936 44.2527 20.2823 44.8404L19.7261 47.779C19.6969 47.9332 19.5618 48.045 19.4049 48.045H15.9687C15.8117 48.045 15.6767 47.9331 15.6471 47.7766L14.6295 42.4913C14.564 42.1508 14.3501 41.8612 14.0424 41.6969C9.39942 39.2182 6.94531 35.0772 6.94531 29.7218C6.94531 27.0159 7.5373 24.6232 8.70479 22.6099C9.79424 20.7311 11.3854 19.1777 13.4342 17.9927C13.782 17.7914 13.9009 17.3463 13.6997 16.9983C13.4985 16.6505 13.0534 16.5318 12.7055 16.7328C8.73291 19.0308 6.33691 22.5762 5.67725 27.0791V27.079C5.60723 27.0726 5.53711 27.0666 5.46729 27.0594C5.47998 26.5735 5.39209 26.0833 5.20068 25.6075C4.77852 24.5581 3.91133 23.8007 2.99131 23.6779C2.26631 23.5808 1.57637 23.8887 1.09756 24.5213C0.40332 25.4387 0.516504 26.1646 0.733594 26.6121C1.1001 27.3673 2.04219 27.9015 3.60557 28.2373C3.5626 28.3016 3.51533 28.3663 3.46357 28.4312C2.53984 29.5897 1.45156 29.8459 0.744922 29.87C0.33125 29.884 0 30.2161 0 30.6301V30.6336C0 31.0419 0.322168 31.3749 0.730078 31.3935C0.782324 31.396 0.836914 31.3972 0.89375 31.3972C1.78789 31.3972 3.22295 31.0675 4.60166 29.3387C4.81934 29.0658 4.99668 28.7779 5.13301 28.4805C5.27031 28.496 5.40225 28.5093 5.52861 28.521C5.52861 28.5207 5.52861 28.5205 5.52871 28.5202C5.50391 28.9145 5.49014 29.3146 5.49014 29.7218C5.49014 32.7518 6.2125 35.4535 7.63701 37.752C8.95049 39.8712 10.8311 41.6063 13.2283 42.9112L14.2176 48.0495C14.3767 48.8901 15.1131 49.5003 15.9687 49.5003H19.4049C20.2604 49.5003 20.9969 48.8901 21.156 48.0495L21.6589 45.3925C22.7034 45.5031 23.7849 45.5592 24.8781 45.5592C26.3781 45.5592 27.8764 45.4547 29.3365 45.2484L29.8667 48.0497C30.0259 48.8903 30.7623 49.5004 31.6178 49.5004H35.054C35.9096 49.5004 36.646 48.8902 36.8052 48.0493L37.8342 42.601C40.7412 41.0638 42.9324 39.0444 44.3482 36.5975C44.4503 36.4212 44.6074 36.2918 44.7906 36.2331L48.0902 35.1762C49.2325 34.81 50 33.7584 50 32.5589V29.1629C50 27.9635 49.2325 26.9118 48.0902 26.5459ZM41.1404 17.8977C40.8604 20.2929 40.1091 22.3417 39.3542 22.7692C38.4962 23.2553 36.5152 23.3491 35.0279 22.2611C33.5389 21.1719 33.0433 19.2131 33.5945 16.5965C33.5945 16.5964 33.5945 16.5964 33.5945 16.5964C33.6499 16.3336 33.8366 16.1062 34.0939 15.9885C37.7369 14.3209 39.8372 13.7755 40.6175 13.7755C40.7353 13.7755 40.8229 13.7879 40.8813 13.8107C41.1157 14.0605 41.4231 15.4806 41.1404 17.8977ZM2.04307 25.9766C1.96777 25.8214 2.14551 25.5484 2.2582 25.3994C2.43682 25.1635 2.60137 25.1152 2.72568 25.1152C2.75195 25.1152 2.77646 25.1174 2.79893 25.1204C3.1335 25.165 3.60225 25.5332 3.85059 26.1505C3.90908 26.2958 3.98506 26.5365 4.00283 26.8367C2.99551 26.628 2.21289 26.3271 2.04307 25.9766Z" stroke="#D6975A" stroke-width="2" mask="url(#path-2-inside-1)"/>
<path d="M22.7342 6.49277L22.4923 6.523C22.0851 6.57387 21.6747 6.69616 21.3564 6.95126C21.0169 7.22338 20.8228 7.61535 20.8228 8.09669C20.8228 8.61527 21.03 9.00183 21.3584 9.28301C21.6559 9.53763 22.0418 9.69475 22.3777 9.82152L23.0543 10.0768V10.0639L23.0617 10.0666C23.618 10.2713 24.1164 10.4873 24.4807 10.824C24.8201 11.1378 25.0689 11.5809 25.0689 12.3169C25.0689 13.001 24.8658 13.4845 24.5558 13.8163C24.2414 14.1529 23.7734 14.3798 23.1654 14.4642L22.8768 14.5043L22.4854 14.498C21.776 14.4866 21.1999 14.2891 20.8143 14.0448C20.621 13.9223 20.4859 13.7947 20.4037 13.6841C20.3186 13.5697 20.3091 13.5006 20.3091 13.4843C20.3091 13.477 20.3115 13.4512 20.326 13.4114C20.34 13.373 20.3608 13.3342 20.385 13.3017C20.3906 13.2943 20.3959 13.2876 20.401 13.2818C20.4054 13.2851 20.4102 13.2886 20.4152 13.2925C20.4587 13.3257 20.507 13.3666 20.5737 13.4234L20.5746 13.4241C20.6378 13.4779 20.7136 13.5424 20.798 13.6085C21.1521 13.8858 21.657 14.1908 22.4382 14.2521L22.6572 14.2693V14.329L22.8838 14.287L22.9773 14.2944V14.2697L23.2482 14.2196C23.6665 14.1421 24.0583 13.9701 24.3473 13.6599C24.6425 13.3428 24.786 12.9288 24.786 12.4579C24.786 11.937 24.6195 11.5234 24.3276 11.2016C24.0511 10.8968 23.6893 10.7053 23.3541 10.5617L22.9773 10.4002V10.3862L22.7846 10.3177L22.6572 10.2631V10.2724L22.6448 10.268C22.0505 10.0567 21.5257 9.86342 21.1381 9.55333C20.7859 9.27159 20.54 8.88668 20.54 8.22481C20.54 7.55964 20.7828 7.13861 21.1206 6.8589C21.4767 6.56396 21.9801 6.39389 22.5297 6.33603L22.8508 6.30221L23.2195 6.31307C23.6217 6.32491 24.0922 6.39365 24.4449 6.5198C24.6227 6.5834 24.7382 6.6503 24.8009 6.70572C24.8224 6.72468 24.8328 6.73755 24.8376 6.74474C24.8372 6.74917 24.8365 6.75495 24.8354 6.76199C24.8331 6.77718 24.8292 6.79584 24.8232 6.81663C24.8109 6.85961 24.7932 6.90086 24.7734 6.93334C24.7677 6.9426 24.7624 6.95036 24.7576 6.95674C24.7506 6.95388 24.7424 6.95042 24.733 6.94624C24.685 6.92485 24.6523 6.90824 24.6107 6.88713C24.5697 6.86634 24.5201 6.84117 24.4388 6.80276C24.1674 6.6745 23.7982 6.53249 23.2699 6.49473L23.0543 6.47933V6.45279L22.9191 6.46967L22.7342 6.45646V6.49277ZM24.841 6.75164C24.8408 6.75163 24.84 6.7502 24.8392 6.74741C24.8409 6.75026 24.8413 6.75166 24.841 6.75164Z" stroke="#D6975A"/>
</svg>
