<svg width="35" height="45" viewBox="0 0 35 45" fill="none" xmlns="http://www.w3.org/2000/svg">
<path d="M33.6719 6.32812C28.3014 6.32812 23.1672 4.6582 18.824 1.49976L17.9134 0.837415C17.6673 0.658118 17.3327 0.658118 17.0866 0.837415L16.176 1.49976C11.8328 4.6582 6.69859 6.32812 1.32812 6.32812C0.939297 6.32812 0.625 6.64312 0.625 7.03124V20.3498C0.625 30.041 6.27391 39.0045 15.0166 43.1852L17.197 44.228C17.2926 44.2737 17.3966 44.2969 17.5 44.2969C17.6034 44.2969 17.7074 44.2737 17.8037 44.228L19.9841 43.1852C28.7261 39.0045 34.375 30.041 34.375 20.3498V7.03124C34.375 6.64312 34.0607 6.32812 33.6719 6.32812ZM32.9688 20.3498C32.9688 29.5024 27.6334 37.968 19.3766 41.9161L17.5 42.8147L15.6234 41.9168C7.36656 37.9681 2.03125 29.5024 2.03125 20.3498V7.72523C7.44461 7.58531 12.6084 5.83382 17.0029 2.63671L17.5 2.27531L17.9971 2.63671C22.3916 5.83312 27.5554 7.58531 32.9688 7.72523V20.3498Z" fill="#D6975A"/>
<path d="M5.54688 22.5C5.54688 29.0911 10.9089 34.4531 17.5 34.4531C24.0911 34.4531 29.4531 29.0911 29.4531 22.5C29.4531 15.9089 24.0911 10.5469 17.5 10.5469C10.9089 10.5469 5.54688 15.9089 5.54688 22.5ZM28.0469 22.5C28.0469 28.3155 23.3155 33.0469 17.5 33.0469C11.6845 33.0469 6.95312 28.3155 6.95312 22.5C6.95312 16.6845 11.6845 11.9531 17.5 11.9531C23.3155 11.9531 28.0469 16.6845 28.0469 22.5Z" fill="#D6975A"/>
<path d="M13.2812 19.6875V22.5H12.5781C12.1893 22.5 11.875 22.815 11.875 23.2031V28.8281C11.875 29.2163 12.1893 29.5312 12.5781 29.5312H22.4219C22.8107 29.5312 23.125 29.2163 23.125 28.8281V23.2031C23.125 22.815 22.8107 22.5 22.4219 22.5H21.7188V19.6875C21.7188 17.3609 19.8266 15.4688 17.5 15.4688C15.1734 15.4688 13.2812 17.3609 13.2812 19.6875ZM21.7188 28.125H13.2812V23.9062H21.7188V28.125ZM20.3125 19.6875V22.5H14.6875V19.6875C14.6875 18.1364 15.9489 16.875 17.5 16.875C19.0511 16.875 20.3125 18.1364 20.3125 19.6875Z" fill="#D6975A"/>
<path d="M14.6875 25.3125H16.0938V26.7188H14.6875V25.3125Z" fill="#D6975A"/>
<path d="M19.6094 25.3125H21.0156V26.7188H19.6094V25.3125Z" fill="#D6975A"/>
</svg>
