<svg width="12" height="17" viewBox="0 0 12 17" fill="none" xmlns="http://www.w3.org/2000/svg">
<path d="M7.96184 8.0275C8.47674 7.51259 8.73419 6.89128 8.73419 6.16355C8.73419 5.43582 8.47674 4.8145 7.96184 4.29959C7.44693 3.78469 6.82562 3.52724 6.09788 3.52724C5.37015 3.52724 4.74884 3.78469 4.23393 4.29959C3.71903 4.8145 3.46158 5.43582 3.46158 6.16355C3.46158 6.89128 3.71903 7.51259 4.23393 8.0275C4.74884 8.5424 5.37015 8.79985 6.09788 8.79985C6.82562 8.79985 7.44693 8.5424 7.96184 8.0275ZM11.3705 6.16355C11.3705 6.91187 11.2572 7.52633 11.0307 8.0069L7.28216 15.9776C7.17232 16.2042 7.00755 16.3827 6.78786 16.5131C6.57503 16.6436 6.34504 16.7088 6.09788 16.7088C5.85073 16.7088 5.61731 16.6436 5.39762 16.5131C5.18479 16.3827 5.02688 16.2042 4.9239 15.9776L1.1651 8.0069C0.938547 7.52633 0.825268 6.91187 0.825268 6.16355C0.825268 4.70808 1.34017 3.46545 2.36998 2.43564C3.39979 1.40583 4.64242 0.89093 6.09788 0.89093C7.55335 0.89093 8.79598 1.40583 9.82579 2.43564C10.8556 3.46545 11.3705 4.70808 11.3705 6.16355Z" fill="#D6975A"/>
</svg>
