<svg width="14" height="11" viewBox="0 0 14 11" fill="#fff" xmlns="http://www.w3.org/2000/svg">
<path d="M13.248 3.92782V9.37894C13.248 9.68102 13.1404 9.93961 12.9253 10.1547C12.7102 10.3698 12.4516 10.4774 12.1495 10.4774H2.04367C1.7416 10.4774 1.483 10.3698 1.26788 10.1547C1.05277 9.93961 0.945211 9.68102 0.945211 9.37894V3.92782C1.1466 4.15209 1.37773 4.35119 1.63862 4.52511C3.29546 5.65104 4.43283 6.44056 5.05071 6.89367C5.3116 7.0859 5.52214 7.23694 5.68233 7.34679C5.8471 7.45206 6.0645 7.5619 6.33454 7.67632C6.60458 7.78617 6.85631 7.84109 7.08973 7.84109H7.0966H7.10346C7.33689 7.84109 7.58862 7.78617 7.85866 7.67632C8.12869 7.5619 8.34381 7.45206 8.504 7.34679C8.66877 7.23694 8.8816 7.0859 9.14248 6.89367C9.92056 6.33071 11.0602 5.54119 12.5614 4.52511C12.8223 4.34661 13.0512 4.14752 13.248 3.92782ZM13.248 1.9094C13.248 2.27098 13.1358 2.61654 12.9116 2.94607C12.6873 3.27561 12.4081 3.55709 12.074 3.79052C10.3531 4.98509 9.28208 5.72884 8.861 6.02177C8.81523 6.05381 8.71683 6.12475 8.56579 6.23459C8.41933 6.33986 8.29575 6.42682 8.19506 6.49548C8.09894 6.55956 7.97994 6.63279 7.83806 6.71517C7.70075 6.79756 7.57031 6.85934 7.44673 6.90054C7.32316 6.94173 7.20873 6.96232 7.10346 6.96232H7.0966H7.08973C6.98446 6.96232 6.87004 6.94173 6.74646 6.90054C6.62289 6.85934 6.49015 6.79756 6.34827 6.71517C6.21096 6.63279 6.09196 6.55956 5.99127 6.49548C5.89516 6.42682 5.77158 6.33986 5.62054 6.23459C5.47408 6.12475 5.37796 6.05381 5.33219 6.02177C4.91569 5.72884 4.31612 5.31234 3.53346 4.77227C2.75081 4.22761 2.28167 3.90036 2.12606 3.79052C1.84229 3.59829 1.57454 3.33511 1.32281 3.001C1.07108 2.6623 0.945211 2.34879 0.945211 2.06044C0.945211 1.70344 1.03904 1.40594 1.22669 1.16794C1.41892 0.929939 1.69125 0.810939 2.04367 0.810939H12.1495C12.447 0.810939 12.7033 0.918496 12.9184 1.13361C13.1381 1.34873 13.248 1.60732 13.248 1.9094Z"/>
</svg>
