<svg width="51" height="51" viewBox="0 0 51 51" fill="none" xmlns="http://www.w3.org/2000/svg">
<path d="M39.4454 3.98438C38.8955 3.98438 38.4493 4.43063 38.4493 4.98047C38.4493 5.53032 38.8955 5.97657 39.4454 5.97657C39.9952 5.97657 40.4415 5.53032 40.4415 4.98047C40.4415 4.43063 39.9952 3.98438 39.4454 3.98438Z" fill="#D6975A"/>
<path d="M24.504 45.0235C23.9541 45.0235 23.5079 45.4698 23.5079 46.0196C23.5079 46.5695 23.9541 47.0157 24.504 47.0157C25.0538 47.0157 25.5001 46.5695 25.5001 46.0196C25.5001 45.4698 25.0538 45.0235 24.504 45.0235Z" fill="#D6975A"/>
<path d="M45.422 5.97657H44.4259V2.98829C44.4259 1.34055 43.0853 0 41.4376 0H7.57032C5.92258 0 4.58203 1.34055 4.58203 2.98829V5.97657H3.58594C3.0358 5.97657 2.58984 6.42263 2.58984 6.97267C2.58984 7.52271 3.0358 7.96877 3.58594 7.96877H4.58203V11.2559C4.58203 12.9036 5.92258 14.2442 7.57032 14.2442H41.4376C43.0853 14.2442 44.4259 12.9036 44.4259 11.2559V7.96877H45.422C45.9712 7.96877 46.418 8.41561 46.418 8.96486V15.5232C46.418 16.0186 46.0628 16.4328 45.5735 16.508C45.566 16.5092 45.5584 16.5104 45.5508 16.5117L26.0295 19.9743C24.5675 20.205 23.5079 21.4444 23.5079 22.9261V24.2051H20.5196C19.7217 24.2051 18.9713 24.516 18.4067 25.0807C17.8422 25.6453 17.5313 26.3955 17.5313 27.1934C17.5313 28.7956 18.7989 30.1071 20.384 30.1782L18.5822 44.2136V44.2137C18.5822 44.2141 18.5821 44.2144 18.5821 44.2147L18.5814 44.2203C18.5813 44.2208 18.5814 44.2213 18.5813 44.2217C18.5456 44.4882 18.5275 44.758 18.5275 45.0234C18.5275 48.3189 21.2086 51 24.504 51C27.7995 51 30.4806 48.3189 30.4806 45.0234C30.4806 44.7584 30.4625 44.489 30.4269 44.2229C30.4268 44.222 30.4268 44.2212 30.4267 44.2203L28.6241 30.1783C29.3711 30.1451 30.0688 29.8386 30.6012 29.3061C31.1657 28.7416 31.4766 27.9913 31.4766 27.1934C31.4766 25.5457 30.1361 24.2051 28.4883 24.2051H25.5V22.9261C25.5 22.4307 25.8552 22.0165 26.3446 21.9413C26.3521 21.9401 26.3597 21.9389 26.3672 21.9376L45.8886 18.475C47.3503 18.2442 48.4102 17.0048 48.4102 15.5232V8.96486C48.4102 7.31712 47.0697 5.97657 45.422 5.97657ZM42.4337 11.2559C42.4337 11.8051 41.9868 12.252 41.4376 12.252H7.57032C7.02107 12.252 6.57423 11.8051 6.57423 11.2559V2.98829C6.57423 2.43904 7.02107 1.99219 7.57032 1.99219H41.4376C41.9868 1.99219 42.4337 2.43904 42.4337 2.98829V11.2559ZM24.5039 49.0079C22.307 49.0079 20.5196 47.2205 20.5196 45.0235C20.5196 44.8442 20.532 44.6615 20.5564 44.4806C20.5566 44.4794 20.5565 44.4783 20.5567 44.4771C20.5568 44.4761 20.5571 44.4751 20.5572 44.474L22.392 30.1817H26.6158L28.4506 44.474C28.4508 44.4752 28.4511 44.4764 28.4512 44.4776C28.4513 44.4786 28.4513 44.4796 28.4515 44.4806C28.476 44.6615 28.4883 44.8442 28.4883 45.0235C28.4883 47.2205 26.7009 49.0079 24.5039 49.0079ZM28.4883 26.1973C29.0376 26.1973 29.4844 26.6442 29.4844 27.1934C29.4844 27.4592 29.3807 27.7092 29.1924 27.8975C29.004 28.0857 28.7541 28.1895 28.4883 28.1895H27.4922H21.5157H20.5196C19.9703 28.1895 19.5235 27.7427 19.5235 27.1934C19.5235 26.9277 19.6272 26.6775 19.8154 26.4894C20.0037 26.301 20.2538 26.1973 20.5196 26.1973H28.4883Z" fill="#D6975A"/>
<path d="M35.461 3.98438H9.5625C9.01236 3.98438 8.56641 4.43043 8.56641 4.98047C8.56641 5.53051 9.01236 5.97657 9.5625 5.97657H35.461C36.011 5.97657 36.4571 5.53051 36.4571 4.98047C36.4571 4.43043 36.011 3.98438 35.461 3.98438Z" fill="#D6975A"/>
</svg>
