<svg width="13" height="13" viewBox="0 0 13 13" fill="#fff" xmlns="http://www.w3.org/2000/svg">
<path d="M12.7853 10.3571C12.7853 10.5179 12.7555 10.7292 12.696 10.9911C12.6365 11.247 12.574 11.4494 12.5085 11.5982C12.3835 11.8958 12.0204 12.2113 11.4192 12.5446C10.8597 12.8482 10.3061 13 9.75851 13C9.5978 13 9.44006 12.9911 9.2853 12.9732C9.13053 12.9494 8.95791 12.9107 8.76744 12.8571C8.58291 12.8036 8.44303 12.7619 8.3478 12.7321C8.25851 12.6964 8.09482 12.6339 7.85672 12.5446C7.61863 12.4554 7.4728 12.4018 7.41922 12.3839C6.83589 12.1756 6.31506 11.9286 5.85672 11.6429C5.10077 11.1726 4.31506 10.5298 3.49958 9.71429C2.68411 8.89881 2.04125 8.11309 1.57101 7.35714C1.2853 6.89881 1.03827 6.37798 0.829939 5.79464C0.812081 5.74107 0.75851 5.59524 0.669224 5.35714C0.579939 5.11905 0.517439 4.95536 0.481724 4.86607C0.451962 4.77083 0.410296 4.63095 0.356724 4.44643C0.303153 4.25595 0.264462 4.08333 0.240653 3.92857C0.222796 3.77381 0.213867 3.61607 0.213867 3.45536C0.213867 2.90774 0.365653 2.35417 0.669224 1.79464C1.00256 1.19345 1.31803 0.830357 1.61565 0.705357C1.76446 0.63988 1.96684 0.57738 2.2228 0.517857C2.4847 0.458333 2.69601 0.428571 2.85672 0.428571C2.94006 0.428571 3.00256 0.437499 3.04422 0.455357C3.15137 0.491071 3.30911 0.717262 3.51744 1.13393C3.58291 1.24702 3.6722 1.40774 3.7853 1.61607C3.89839 1.8244 4.00256 2.01488 4.0978 2.1875C4.19303 2.35417 4.2853 2.5119 4.37458 2.66071C4.39244 2.68452 4.44303 2.75893 4.52637 2.88393C4.61565 3.00893 4.68113 3.11607 4.7228 3.20536C4.76446 3.28869 4.7853 3.37202 4.7853 3.45536C4.7853 3.5744 4.69899 3.72321 4.52637 3.90178C4.3597 4.08036 4.17518 4.24405 3.9728 4.39286C3.77637 4.54167 3.59184 4.6994 3.41922 4.86607C3.25256 5.03274 3.16922 5.16964 3.16922 5.27679C3.16922 5.33036 3.18411 5.39881 3.21387 5.48214C3.24363 5.55952 3.26744 5.61905 3.2853 5.66071C3.30911 5.70238 3.35077 5.77381 3.4103 5.875C3.47577 5.97619 3.51149 6.03274 3.51744 6.04464C3.96982 6.86012 4.48768 7.55952 5.07101 8.14286C5.65434 8.72619 6.35375 9.24405 7.16922 9.69643C7.18113 9.70238 7.23768 9.7381 7.33887 9.80357C7.44006 9.8631 7.51149 9.90476 7.55315 9.92857C7.59482 9.94643 7.65434 9.97024 7.73172 10C7.81506 10.0298 7.88351 10.0446 7.93708 10.0446C8.04422 10.0446 8.18113 9.96131 8.3478 9.79464C8.51446 9.62202 8.6722 9.4375 8.82101 9.24107C8.96982 9.03869 9.13351 8.85417 9.31208 8.6875C9.49065 8.51488 9.63946 8.42857 9.75851 8.42857C9.84184 8.42857 9.92518 8.4494 10.0085 8.49107C10.0978 8.53274 10.2049 8.59821 10.3299 8.6875C10.4549 8.77083 10.5293 8.82143 10.5532 8.83929C10.702 8.92857 10.8597 9.02083 11.0264 9.11607C11.199 9.21131 11.3895 9.31548 11.5978 9.42857C11.8061 9.54167 11.9668 9.63095 12.0799 9.69643C12.4966 9.90476 12.7228 10.0625 12.7585 10.1696C12.7764 10.2113 12.7853 10.2738 12.7853 10.3571Z"/>
</svg>
