<svg width="340" height="331" viewBox="0 0 340 331" fill="none" xmlns="http://www.w3.org/2000/svg">
<path d="M7.05415 79.65H-12.6445L-12.7465 79.4664L-22.4904 62.5897L-12.6445 45.5293H7.05415L7.15615 45.7129L16.9001 62.5897L7.05415 79.65ZM-12.2229 78.9225H6.63257L16.0637 62.5965L6.63257 46.2637H-12.2229L-21.6541 62.5965L-12.2229 78.9225Z" fill="#D6975A"/>
<path d="M16.4853 62.2292H-2.79179V62.9568H16.4853V62.2292Z" fill="#D6975A"/>
<path d="M26.3313 46.1617H-13.066L-3.00931 28.741H36.388L26.3313 46.1617ZM-11.8013 45.4342H25.9097L35.13 29.4685H-2.58773L-11.8013 45.4342Z" fill="#D6975A"/>
<path d="M64.8854 79.65H45.1868L45.0848 79.4664L35.3409 62.5897L45.1868 45.5293H64.8854L64.9874 45.7129L74.7313 62.5897L64.8854 79.65ZM45.6084 78.9225H64.4638L73.895 62.5965L64.4638 46.2637H45.6084L36.1772 62.5965L45.6084 78.9225Z" fill="#D6975A"/>
<path d="M45.7103 79.4733L45.0848 79.1061L54.6179 62.5965L45.0848 46.0801L45.7103 45.7197L55.4542 62.5965L45.7103 79.4733Z" fill="#D6975A"/>
<path d="M74.3098 62.2292H55.0327V62.9568H74.3098V62.2292Z" fill="#D6975A"/>
<path d="M84.1625 46.1617H44.7652L54.8219 28.741H94.2192L84.1625 46.1617ZM46.0299 45.4342H83.7409L92.9613 29.4685H55.2435L46.0299 45.4342Z" fill="#D6975A"/>
<path d="M46.0231 79.6501H25.9097L25.8077 79.4665L6.21787 45.5361H26.5081L26.6101 45.7197L46.0231 79.6501ZM26.3313 78.9225H44.7652L26.0865 46.2637H7.48261L26.3313 78.9225Z" fill="#D6975A"/>
<path d="M35.7556 63.3309L25.7057 45.5973L45.2208 11.4834L55.4543 29.1081L55.3523 29.2917L35.7556 63.3309ZM26.5421 45.5973L35.7624 61.8621L54.6179 29.1081L45.2208 12.9385L26.5421 45.5973Z" fill="#D6975A"/>
<path d="M122.717 79.6501H103.018L102.916 79.4665L93.172 62.5965L103.018 45.5361H122.717L122.819 45.7197L132.563 62.5965L122.717 79.6501ZM103.44 78.9225H122.295L131.726 62.5965L122.295 46.2637H103.44L94.0084 62.5965L103.44 78.9225Z" fill="#D6975A"/>
<path d="M103.542 79.4733L102.909 79.1061L112.442 62.5965L102.909 46.0801L103.542 45.7197L113.285 62.5965L103.542 79.4733Z" fill="#D6975A"/>
<path d="M132.141 62.2292H112.864V62.9568H132.141V62.2292Z" fill="#D6975A"/>
<path d="M141.994 46.1617H102.596L112.653 28.741H152.05L141.994 46.1617ZM103.861 45.4342H141.572L150.792 29.4685H113.081L103.861 45.4342Z" fill="#D6975A"/>
<path d="M103.854 79.6501H83.7409L83.6389 79.4665L64.0491 45.5361H84.3393L84.4413 45.7197L103.854 79.6501ZM84.1625 78.9225H102.596L83.9177 46.2637H65.307L84.1625 78.9225Z" fill="#D6975A"/>
<path d="M93.5868 63.3309L83.5301 45.5973L103.045 11.4834L113.285 29.1081L113.183 29.2917L93.5868 63.3309ZM84.3733 45.5973L93.5936 61.8621L112.449 29.1081L103.059 12.9385L84.3733 45.5973Z" fill="#D6975A"/>
<path d="M180.548 79.65H160.849L160.747 79.4664L151.003 62.5897L160.849 45.5293H180.548L180.65 45.7129L190.394 62.5897L180.548 79.65ZM161.271 78.9225H180.126L189.557 62.5965L180.126 46.2637H161.271L151.84 62.5965L161.271 78.9225Z" fill="#D6975A"/>
<path d="M161.373 79.4733L160.74 79.1061L170.273 62.5965L160.74 46.0801L161.373 45.7197L171.117 62.5965L161.373 79.4733Z" fill="#D6975A"/>
<path d="M189.972 62.2292H170.695V62.9568H189.972V62.2292Z" fill="#D6975A"/>
<path d="M199.818 46.1617H160.421L170.477 28.741H209.875L199.818 46.1617ZM161.692 45.4342H199.403L208.624 29.4685H170.913L161.692 45.4342Z" fill="#D6975A"/>
<path d="M161.685 79.6501H141.572L141.47 79.4665L121.88 45.5361H142.17L142.272 45.7197L161.685 79.6501ZM141.994 78.9225H160.428L141.749 46.2637H123.138L141.994 78.9225Z" fill="#D6975A"/>
<path d="M151.418 63.3309L141.361 45.5973L160.876 11.4834L171.117 29.1081L171.015 29.2917L151.418 63.3309ZM142.198 45.5973L151.418 61.8621L170.273 29.1081L160.883 12.9385L142.198 45.5973Z" fill="#D6975A"/>
<path d="M238.372 79.65H218.673L218.571 79.4664L208.827 62.5897L218.673 45.5293H238.372L238.474 45.7129L248.218 62.5897L238.372 79.65ZM219.102 78.9225H237.957L247.388 62.5965L237.957 46.2637H219.102L209.671 62.5965L219.102 78.9225Z" fill="#D6975A"/>
<path d="M219.204 79.4733L218.571 79.1061L228.105 62.5965L218.571 46.0801L219.204 45.7197L228.948 62.5965L219.204 79.4733Z" fill="#D6975A"/>
<path d="M247.803 62.2292H228.526V62.9568H247.803V62.2292Z" fill="#D6975A"/>
<path d="M257.649 46.1617H218.252L228.309 28.741H267.706L257.649 46.1617ZM219.517 45.4342H257.228L266.448 29.4685H228.737L219.517 45.4342Z" fill="#D6975A"/>
<path d="M219.517 79.6501H199.403L199.301 79.4665L179.711 45.5361H200.002L200.104 45.7197L219.517 79.6501ZM199.825 78.9225H218.265L199.587 46.2637H180.976L199.825 78.9225Z" fill="#D6975A"/>
<path d="M209.249 63.3309L199.192 45.5973L218.707 11.4834L228.941 29.1081L228.839 29.2917L209.249 63.3309ZM200.029 45.5973L209.249 61.8621L228.105 29.1081L218.714 12.9385L200.029 45.5973Z" fill="#D6975A"/>
<path d="M296.203 79.65H276.505L276.403 79.4664L266.659 62.5897L276.505 45.5293H296.203L296.305 45.7129L306.049 62.5897L296.203 79.65ZM276.926 78.9225H295.782L305.213 62.5965L295.782 46.2637H276.926L267.502 62.5965L276.926 78.9225Z" fill="#D6975A"/>
<path d="M277.035 79.4733L276.403 79.1061L285.936 62.5965L276.403 46.0801L277.035 45.7197L286.779 62.5965L277.035 79.4733Z" fill="#D6975A"/>
<path d="M305.635 62.2292H286.357V62.9568H305.635V62.2292Z" fill="#D6975A"/>
<path d="M315.48 46.1617H276.083L286.14 28.741H325.537L315.48 46.1617ZM277.348 45.4342H315.059L324.279 29.4685H286.568L277.348 45.4342Z" fill="#D6975A"/>
<path d="M277.348 79.6501H257.234L257.132 79.4665L237.543 45.5361H257.833L257.935 45.7197L277.348 79.6501ZM257.656 78.9225H276.09L257.411 46.2637H238.801L257.656 78.9225Z" fill="#D6975A"/>
<path d="M267.08 63.3309L257.024 45.5973L276.539 11.4834L286.772 29.1081L286.67 29.2917L267.08 63.3309ZM257.86 45.5973L267.08 61.8621L285.936 29.1081L276.546 12.9385L257.86 45.5973Z" fill="#D6975A"/>
<path d="M354.035 79.65H334.336L334.234 79.4664L324.49 62.5897L334.336 45.5293H354.035L354.137 45.7129L363.881 62.5897L354.035 79.65ZM334.758 78.9225H353.613L363.044 62.5965L353.613 46.2637H334.758L325.326 62.5965L334.758 78.9225Z" fill="#D6975A"/>
<path d="M334.866 79.4733L334.234 79.1061L343.767 62.5965L334.234 46.0801L334.866 45.7197L344.61 62.5965L334.866 79.4733Z" fill="#D6975A"/>
<path d="M373.312 46.1617H333.914L343.971 28.741H383.369L373.312 46.1617ZM335.179 45.4342H372.89L382.111 29.4685H344.4L335.179 45.4342Z" fill="#D6975A"/>
<path d="M335.179 79.6501H315.066L314.964 79.4665L295.374 45.5361H315.664L315.766 45.7197L335.179 79.6501ZM315.481 78.9225H333.914L315.236 46.2637H296.625L315.481 78.9225Z" fill="#D6975A"/>
<path d="M324.912 63.3309L314.855 45.5973L334.37 11.4834L344.61 29.1081L344.508 29.2917L324.912 63.3309ZM315.691 45.5973L324.912 61.8621L343.767 29.1081L334.377 12.9385L315.691 45.5973Z" fill="#D6975A"/>
<path d="M7.05415 180.503H-12.6445L-12.7465 180.319L-22.4904 163.442L-12.6445 146.382H7.05415L7.15615 146.565L16.9001 163.442L7.05415 180.503ZM-12.2229 179.775H6.63257L16.0637 163.449L6.63257 147.116H-12.2229L-21.6541 163.449L-12.2229 179.775Z" fill="#D6975A"/>
<path d="M16.4853 163.082H-2.79179V163.809H16.4853V163.082Z" fill="#D6975A"/>
<path d="M26.3313 147.014H-13.066L-3.00251 129.594H36.3948L26.3313 147.014ZM-11.8013 146.287H25.9097L35.13 130.321H-2.58773L-11.8013 146.287Z" fill="#D6975A"/>
<path d="M64.8854 180.503H45.1868L45.0848 180.319L35.3409 163.442L45.1868 146.382H64.8854L64.9874 146.565L74.7313 163.442L64.8854 180.503ZM45.6084 179.775H64.4638L73.895 163.449L64.4638 147.116H45.6084L36.1772 163.449L45.6084 179.775Z" fill="#D6975A"/>
<path d="M45.7103 180.319L45.0848 179.959L54.6179 163.449L45.0848 146.933L45.7103 146.572L55.4542 163.449L45.7103 180.319Z" fill="#D6975A"/>
<path d="M74.3098 163.082H55.0327V163.809H74.3098V163.082Z" fill="#D6975A"/>
<path d="M84.1625 147.014H44.7652L54.8219 129.594H94.2192L84.1625 147.014ZM46.0299 146.287H83.7409L92.9613 130.321H55.2435L46.0299 146.287Z" fill="#D6975A"/>
<path d="M46.0231 180.503H25.9097L25.8077 180.319L6.21787 146.389H26.5081L26.6101 146.572L46.0231 180.503ZM26.3313 179.775H44.7652L26.0865 147.116H7.48261L26.3313 179.775Z" fill="#D6975A"/>
<path d="M35.7556 164.183L25.6989 146.45L45.214 112.336L55.4475 129.961L55.3455 130.144L35.7556 164.183ZM26.5421 146.45L35.7624 162.715L54.6179 129.961L45.2276 113.791L26.5421 146.45Z" fill="#D6975A"/>
<path d="M122.717 180.503H103.018L102.916 180.319L93.172 163.449L103.018 146.389H122.717L122.819 146.572L132.563 163.449L122.717 180.503ZM103.44 179.775H122.295L131.726 163.449L122.295 147.116H103.44L94.0084 163.449L103.44 179.775Z" fill="#D6975A"/>
<path d="M103.542 180.319L102.909 179.959L112.442 163.449L102.909 146.933L103.542 146.572L113.285 163.449L103.542 180.319Z" fill="#D6975A"/>
<path d="M132.141 163.082H112.864V163.809H132.141V163.082Z" fill="#D6975A"/>
<path d="M141.994 147.014H102.596L112.653 129.594H152.05L141.994 147.014ZM103.861 146.287H141.572L150.792 130.321H113.081L103.861 146.287Z" fill="#D6975A"/>
<path d="M103.854 180.503H83.7409L83.6389 180.319L64.0491 146.389H84.3393L84.4413 146.572L103.854 180.503ZM84.1625 179.775H102.596L83.9177 147.116H65.307L84.1625 179.775Z" fill="#D6975A"/>
<path d="M93.5868 164.183L83.5301 146.45L103.045 112.336L113.285 129.961L113.183 130.144L93.5868 164.183ZM84.3733 146.45L93.5936 162.715L112.449 129.961L103.059 113.791L84.3733 146.45Z" fill="#D6975A"/>
<path d="M180.548 180.503H160.849L160.747 180.319L151.003 163.442L160.849 146.382H180.548L180.65 146.565L190.394 163.442L180.548 180.503ZM161.271 179.775H180.126L189.557 163.449L180.126 147.116H161.271L151.84 163.449L161.271 179.775Z" fill="#D6975A"/>
<path d="M161.373 180.319L160.74 179.959L170.273 163.449L160.74 146.933L161.373 146.572L171.117 163.449L161.373 180.319Z" fill="#D6975A"/>
<path d="M189.972 163.082H170.695V163.809H189.972V163.082Z" fill="#D6975A"/>
<path d="M199.818 147.014H160.421L170.484 129.594H209.882L199.818 147.014ZM161.692 146.287H199.403L208.624 130.321H170.913L161.692 146.287Z" fill="#D6975A"/>
<path d="M161.685 180.503H141.572L141.47 180.319L121.88 146.389H142.17L142.272 146.572L161.685 180.503ZM141.994 179.775H160.428L141.749 147.116H123.138L141.994 179.775Z" fill="#D6975A"/>
<path d="M151.418 164.183L141.361 146.45L160.876 112.336L171.117 129.961L171.015 130.144L151.418 164.183ZM142.198 146.45L151.418 162.715L170.273 129.961L160.883 113.791L142.198 146.45Z" fill="#D6975A"/>
<path d="M238.372 180.503H218.673L218.571 180.319L208.827 163.442L218.673 146.382H238.372L238.474 146.565L248.218 163.442L238.372 180.503ZM219.102 179.775H237.957L247.388 163.449L237.957 147.116H219.102L209.671 163.449L219.102 179.775Z" fill="#D6975A"/>
<path d="M219.204 180.319L218.571 179.959L228.105 163.449L218.571 146.933L219.204 146.572L228.948 163.449L219.204 180.319Z" fill="#D6975A"/>
<path d="M247.803 163.082H228.526V163.809H247.803V163.082Z" fill="#D6975A"/>
<path d="M257.649 147.014H218.252L228.315 129.594H267.713L257.649 147.014ZM219.517 146.287H257.228L266.448 130.321H228.737L219.517 146.287Z" fill="#D6975A"/>
<path d="M219.517 180.503H199.403L199.301 180.319L179.711 146.389H200.002L200.104 146.572L219.517 180.503ZM199.825 179.775H218.265L199.587 147.116H180.976L199.825 179.775Z" fill="#D6975A"/>
<path d="M209.249 164.183L199.192 146.45L218.707 112.336L228.941 129.961L228.839 130.144L209.249 164.183ZM200.029 146.45L209.249 162.715L228.105 129.961L218.714 113.791L200.029 146.45Z" fill="#D6975A"/>
<path d="M296.203 180.503H276.505L276.403 180.319L266.659 163.442L276.505 146.382H296.203L296.305 146.565L306.049 163.442L296.203 180.503ZM276.926 179.775H295.782L305.213 163.449L295.782 147.116H276.926L267.502 163.449L276.926 179.775Z" fill="#D6975A"/>
<path d="M277.035 180.319L276.403 179.959L285.936 163.449L276.403 146.933L277.035 146.572L286.779 163.449L277.035 180.319Z" fill="#D6975A"/>
<path d="M305.635 163.082H286.357V163.809H305.635V163.082Z" fill="#D6975A"/>
<path d="M315.48 147.014H276.083L286.147 129.594H325.544L315.48 147.014ZM277.348 146.287H315.059L324.279 130.321H286.568L277.348 146.287Z" fill="#D6975A"/>
<path d="M277.348 180.503H257.234L257.132 180.319L237.543 146.389H257.833L257.935 146.572L277.348 180.503ZM257.656 179.775H276.09L257.411 147.116H238.801L257.656 179.775Z" fill="#D6975A"/>
<path d="M267.08 164.183L257.024 146.45L276.539 112.336L286.772 129.961L286.67 130.144L267.08 164.183ZM257.86 146.45L267.08 162.715L285.936 129.961L276.546 113.791L257.86 146.45Z" fill="#D6975A"/>
<path d="M354.035 180.503H334.336L334.234 180.319L324.49 163.442L334.336 146.382H354.035L354.137 146.565L363.881 163.442L354.035 180.503ZM334.758 179.775H353.613L363.044 163.449L353.613 147.116H334.758L325.326 163.449L334.758 179.775Z" fill="#D6975A"/>
<path d="M334.866 180.319L334.234 179.959L343.767 163.449L334.234 146.933L334.866 146.572L344.61 163.449L334.866 180.319Z" fill="#D6975A"/>
<path d="M373.312 147.014H333.914L343.978 129.594H383.375L373.312 147.014ZM335.179 146.287H372.89L382.111 130.321H344.4L335.179 146.287Z" fill="#D6975A"/>
<path d="M335.179 180.503H315.066L314.964 180.319L295.374 146.389H315.664L315.766 146.572L335.179 180.503ZM315.481 179.775H333.914L315.236 147.116H296.625L315.481 179.775Z" fill="#D6975A"/>
<path d="M324.912 164.183L314.855 146.45L334.37 112.336L344.61 129.961L344.508 130.144L324.912 164.183ZM315.691 146.45L324.912 162.715L343.767 129.961L334.377 113.791L315.691 146.45Z" fill="#D6975A"/>
<path d="M7.05415 281.355H-12.6445L-12.7465 281.172L-22.4904 264.295L-12.6445 247.235H7.05415L7.15615 247.418L16.9001 264.295L7.05415 281.355ZM-12.2229 280.628H6.63257L16.0637 264.302L6.63257 247.969H-12.2229L-21.6541 264.302L-12.2229 280.628Z" fill="#D6975A"/>
<path d="M16.4853 263.935H-2.79179V264.662H16.4853V263.935Z" fill="#D6975A"/>
<path d="M26.3313 247.867H-13.066L-3.00931 230.446H36.388L26.3313 247.867ZM-11.8013 247.139H25.9097L35.13 231.174H-2.58773L-11.8013 247.139Z" fill="#D6975A"/>
<path d="M64.8854 281.355H45.1868L45.0848 281.172L35.3409 264.295L45.1868 247.235H64.8854L64.9874 247.418L74.7313 264.295L64.8854 281.355ZM45.6084 280.628H64.4638L73.895 264.302L64.4638 247.969H45.6084L36.1772 264.302L45.6084 280.628Z" fill="#D6975A"/>
<path d="M45.7103 281.172L45.0848 280.811L54.6179 264.302L45.0848 247.785L45.7103 247.425L55.4542 264.302L45.7103 281.172Z" fill="#D6975A"/>
<path d="M74.3098 263.935H55.0327V264.662H74.3098V263.935Z" fill="#D6975A"/>
<path d="M84.1625 247.867H44.7652L54.8219 230.446H94.2192L84.1625 247.867ZM46.0299 247.139H83.7409L92.9613 231.174H55.2435L46.0299 247.139Z" fill="#D6975A"/>
<path d="M46.0231 281.355H25.9097L25.8077 281.172L6.21787 247.241H26.5081L26.6101 247.425L46.0231 281.355ZM26.3313 280.628H44.7652L26.0865 247.969H7.48261L26.3313 280.628Z" fill="#D6975A"/>
<path d="M35.7556 265.036L25.7057 247.296L45.2208 213.182L55.4543 230.807L55.3523 230.99L35.7556 265.036ZM26.5421 247.303L35.7624 263.567L54.6179 230.813L45.2275 214.644L26.5421 247.303Z" fill="#D6975A"/>
<path d="M122.717 281.355H103.018L102.916 281.172L93.172 264.302L103.018 247.241H122.717L122.819 247.425L132.563 264.302L122.717 281.355ZM103.44 280.628H122.295L131.726 264.302L122.295 247.969H103.44L94.0084 264.302L103.44 280.628Z" fill="#D6975A"/>
<path d="M103.542 281.172L102.909 280.811L112.442 264.302L102.909 247.785L103.542 247.425L113.285 264.302L103.542 281.172Z" fill="#D6975A"/>
<path d="M132.141 263.935H112.864V264.662H132.141V263.935Z" fill="#D6975A"/>
<path d="M141.994 247.867H102.596L112.653 230.446H152.05L141.994 247.867ZM103.861 247.139H141.572L150.792 231.174H113.081L103.861 247.139Z" fill="#D6975A"/>
<path d="M103.854 281.355H83.7409L83.6389 281.172L64.0491 247.241H84.3393L84.4413 247.425L103.854 281.355ZM84.1625 280.628H102.596L83.9177 247.969H65.307L84.1625 280.628Z" fill="#D6975A"/>
<path d="M93.5868 265.036L83.5301 247.303L103.045 213.189L113.285 230.813L113.183 230.997L93.5868 265.036ZM84.3733 247.303L93.5936 263.567L112.449 230.813L103.059 214.644L84.3733 247.303Z" fill="#D6975A"/>
<path d="M180.548 281.355H160.849L160.747 281.172L151.003 264.295L160.849 247.235H180.548L180.65 247.418L190.394 264.295L180.548 281.355ZM161.271 280.628H180.126L189.557 264.302L180.126 247.969H161.271L151.84 264.302L161.271 280.628Z" fill="#D6975A"/>
<path d="M161.373 281.172L160.74 280.811L170.273 264.302L160.74 247.785L161.373 247.425L171.117 264.302L161.373 281.172Z" fill="#D6975A"/>
<path d="M189.972 263.935H170.695V264.662H189.972V263.935Z" fill="#D6975A"/>
<path d="M199.818 247.867H160.421L170.477 230.446H209.875L199.818 247.867ZM161.692 247.139H199.403L208.624 231.174H170.913L161.692 247.139Z" fill="#D6975A"/>
<path d="M161.685 281.355H141.572L141.47 281.172L121.88 247.241H142.17L142.272 247.425L161.685 281.355ZM141.994 280.628H160.428L141.749 247.969H123.138L141.994 280.628Z" fill="#D6975A"/>
<path d="M151.418 265.036L141.361 247.303L160.876 213.189L171.117 230.813L171.015 230.997L151.418 265.036ZM142.198 247.303L151.418 263.567L170.273 230.813L160.883 214.644L142.198 247.303Z" fill="#D6975A"/>
<path d="M238.372 281.355H218.673L218.571 281.172L208.827 264.295L218.673 247.235H238.372L238.474 247.418L248.218 264.295L238.372 281.355ZM219.102 280.628H237.957L247.388 264.302L237.957 247.969H219.102L209.671 264.302L219.102 280.628Z" fill="#D6975A"/>
<path d="M219.204 281.172L218.571 280.811L228.105 264.302L218.571 247.785L219.204 247.425L228.948 264.302L219.204 281.172Z" fill="#D6975A"/>
<path d="M247.803 263.935H228.526V264.662H247.803V263.935Z" fill="#D6975A"/>
<path d="M257.649 247.867H218.252L228.309 230.446H267.706L257.649 247.867ZM219.517 247.139H257.228L266.448 231.174H228.737L219.517 247.139Z" fill="#D6975A"/>
<path d="M219.517 281.355H199.403L199.301 281.172L179.711 247.241H200.002L200.104 247.425L219.517 281.355ZM199.825 280.628H218.265L199.587 247.969H180.976L199.825 280.628Z" fill="#D6975A"/>
<path d="M209.249 265.036L199.192 247.303L218.707 213.189L228.941 230.813L228.839 230.997L209.249 265.036ZM200.029 247.303L209.249 263.567L228.105 230.813L218.714 214.644L200.029 247.303Z" fill="#D6975A"/>
<path d="M296.203 281.355H276.505L276.403 281.172L266.659 264.295L276.505 247.235H296.203L296.305 247.418L306.049 264.295L296.203 281.355ZM276.926 280.628H295.782L305.213 264.302L295.782 247.969H276.926L267.502 264.302L276.926 280.628Z" fill="#D6975A"/>
<path d="M277.035 281.172L276.403 280.811L285.936 264.302L276.403 247.785L277.035 247.425L286.779 264.302L277.035 281.172Z" fill="#D6975A"/>
<path d="M305.635 263.935H286.357V264.662H305.635V263.935Z" fill="#D6975A"/>
<path d="M315.48 247.867H276.083L286.14 230.446H325.537L315.48 247.867ZM277.348 247.139H315.059L324.279 231.174H286.568L277.348 247.139Z" fill="#D6975A"/>
<path d="M277.348 281.355H257.234L257.132 281.172L237.543 247.241H257.833L257.935 247.425L277.348 281.355ZM257.656 280.628H276.09L257.411 247.969H238.801L257.656 280.628Z" fill="#D6975A"/>
<path d="M267.08 265.036L257.024 247.303L276.539 213.189L286.772 230.813L286.67 230.997L267.08 265.036ZM257.86 247.303L267.08 263.567L285.936 230.813L276.546 214.644L257.86 247.303Z" fill="#D6975A"/>
<path d="M354.035 281.355H334.336L334.234 281.172L324.49 264.295L334.336 247.235H354.035L354.137 247.418L363.881 264.295L354.035 281.355ZM334.758 280.628H353.613L363.044 264.302L353.613 247.969H334.758L325.326 264.302L334.758 280.628Z" fill="#D6975A"/>
<path d="M334.866 281.172L334.234 280.811L343.767 264.302L334.234 247.785L334.866 247.425L344.61 264.302L334.866 281.172Z" fill="#D6975A"/>
<path d="M373.312 247.867H333.914L343.971 230.446H383.369L373.312 247.867ZM335.179 247.139H372.89L382.111 231.174H344.4L335.179 247.139Z" fill="#D6975A"/>
<path d="M335.179 281.355H315.066L314.964 281.172L295.374 247.241H315.664L315.766 247.425L335.179 281.355ZM315.481 280.628H333.914L315.236 247.969H296.625L315.481 280.628Z" fill="#D6975A"/>
<path d="M324.912 265.036L314.855 247.303L334.37 213.189L344.61 230.813L344.508 230.997L324.912 265.036ZM315.691 247.303L324.912 263.567L343.767 230.813L334.377 214.644L315.691 247.303Z" fill="#D6975A"/>
<path d="M35.7556 365.882L25.6989 348.149L45.214 314.035L55.4475 331.659L55.3455 331.843L35.7556 365.882ZM26.5421 348.155L35.7624 364.42L54.6179 331.666L45.2276 315.497L26.5421 348.155Z" fill="#D6975A"/>
<path d="M93.5868 365.882L83.5301 348.149L103.045 314.035L113.285 331.659L113.183 331.843L93.5868 365.882ZM84.3733 348.155L93.5936 364.42L112.449 331.666L103.059 315.497L84.3733 348.155Z" fill="#D6975A"/>
<path d="M151.418 365.882L141.361 348.149L160.876 314.035L171.117 331.659L171.015 331.843L151.418 365.882ZM142.198 348.155L151.418 364.42L170.273 331.666L160.883 315.497L142.198 348.155Z" fill="#D6975A"/>
<path d="M209.249 365.882L199.192 348.149L218.707 314.035L228.941 331.659L228.839 331.843L209.249 365.882ZM200.029 348.155L209.249 364.42L228.105 331.666L218.714 315.497L200.029 348.155Z" fill="#D6975A"/>
<path d="M267.08 365.882L257.024 348.149L276.539 314.035L286.772 331.659L286.67 331.843L267.08 365.882ZM257.86 348.155L267.08 364.42L285.936 331.666L276.546 315.497L257.86 348.155Z" fill="#D6975A"/>
<path d="M324.912 365.882L314.855 348.149L334.37 314.035L344.61 331.659L344.508 331.843L324.912 365.882ZM315.691 348.155L324.912 364.42L343.767 331.666L334.377 315.497L315.691 348.155Z" fill="#D6975A"/>
<path d="M35.9664 29.4208H16.2677L16.1657 29.2372L6.415 12.3604L16.2677 -4.69995H35.9664L36.0684 -4.51636L45.8123 12.3604L35.9664 29.4208ZM16.6893 28.6932H35.5448L44.9759 12.3672L35.5448 -3.96559H16.6893L7.25816 12.3604L16.6893 28.6932Z" fill="#D6975A"/>
<path d="M16.7913 29.2372L16.1589 28.87L25.6921 12.3604L16.1589 -4.14918L16.7913 -4.51636L26.5352 12.3604L16.7913 29.2372Z" fill="#D6975A"/>
<path d="M45.3907 12H26.1137V12.7276H45.3907V12Z" fill="#D6975A"/>
<path d="M17.1041 29.4208H-3.00936L-3.11135 29.2372L-22.7012 -4.69995H-2.41099L-2.30899 -4.51636L17.1041 29.4208ZM-2.58778 28.6932H15.8461L-2.83257 -3.96559H-21.4433L-2.58778 28.6932Z" fill="#D6975A"/>
<path d="M6.83655 13.0948L-3.22016 -4.63874L16.2949 -38.7527L26.5352 -21.1279L26.4332 -20.9443L6.83655 13.0948ZM-2.377 -4.63874L6.84335 11.6261L25.6988 -21.1279L16.3017 -37.2976L-2.377 -4.63874Z" fill="#D6975A"/>
<path d="M93.7908 29.4208H74.0921L73.9901 29.2372L64.2462 12.3604L74.0989 -4.69995H93.7976L93.8996 -4.51636L103.643 12.3604L93.7908 29.4208ZM74.5205 28.6932H93.376L102.807 12.3672L93.376 -3.96559H74.5205L65.0893 12.3604L74.5205 28.6932Z" fill="#D6975A"/>
<path d="M74.6225 29.2372L73.9901 28.87L83.5233 12.3604L73.9901 -4.14918L74.6225 -4.51636L84.3664 12.3604L74.6225 29.2372Z" fill="#D6975A"/>
<path d="M103.222 12H83.9449V12.7276H103.222V12Z" fill="#D6975A"/>
<path d="M74.9353 29.4208H54.8218L54.7198 29.2372L35.13 -4.69995H55.4202L55.5222 -4.51636L74.9353 29.4208ZM55.2434 28.6932H73.6841L54.9986 -3.96559H36.3879L55.2434 28.6932Z" fill="#D6975A"/>
<path d="M64.6677 13.0948L54.611 -4.63874L74.1261 -38.7527L84.3596 -21.1279L84.2576 -20.9443L64.6677 13.0948ZM55.4474 -4.63874L64.6677 11.6261L83.5232 -21.1279L74.1329 -37.2976L55.4474 -4.63874Z" fill="#D6975A"/>
<path d="M151.622 29.4208H131.923L131.821 29.2372L122.077 12.3604L131.923 -4.69995H151.622L151.724 -4.51636L161.468 12.3604L151.622 29.4208ZM132.345 28.6932H151.2L160.632 12.3672L151.2 -3.96559H132.345L122.914 12.3672L132.345 28.6932Z" fill="#D6975A"/>
<path d="M132.454 29.2372L131.821 28.87L141.354 12.3604L131.821 -4.14918L132.454 -4.51636L142.198 12.3604L132.454 29.2372Z" fill="#D6975A"/>
<path d="M161.053 12H141.776V12.7276H161.053V12Z" fill="#D6975A"/>
<path d="M132.767 29.4208H112.653L112.551 29.2372L92.9544 -4.69995H113.245L113.347 -4.51636L132.767 29.4208ZM113.075 28.6932H131.509L112.83 -3.96559H94.2192L113.075 28.6932Z" fill="#D6975A"/>
<path d="M122.499 13.0948L112.442 -4.63874L131.957 -38.7527L142.191 -21.1279L142.089 -20.9443L122.499 13.0948ZM113.279 -4.63874L122.499 11.6261L141.355 -21.1279L131.964 -37.2976L113.279 -4.63874Z" fill="#D6975A"/>
<path d="M209.453 29.4208H189.755L189.653 29.2372L179.909 12.3604L189.755 -4.69995H209.453L209.555 -4.51636L219.299 12.3604L209.453 29.4208ZM190.176 28.6932H209.032L218.463 12.3672L209.032 -3.96559H190.176L180.752 12.3604L190.176 28.6932Z" fill="#D6975A"/>
<path d="M190.285 29.2372L189.653 28.87L199.186 12.3604L189.653 -4.14918L190.285 -4.51636L200.029 12.3604L190.285 29.2372Z" fill="#D6975A"/>
<path d="M218.884 12H199.607V12.7276H218.884V12Z" fill="#D6975A"/>
<path d="M190.598 29.4208H170.484L170.382 29.2372L150.786 -4.69995H171.076L171.178 -4.51636L190.598 29.4208ZM170.899 28.6932H189.333L170.654 -3.96559H152.044L170.899 28.6932Z" fill="#D6975A"/>
<path d="M180.33 13.0948L170.273 -4.63874L189.789 -38.7527L200.029 -21.1279L199.927 -20.9443L180.33 13.0948ZM171.11 -4.63874L180.33 11.6261L199.186 -21.1279L189.795 -37.2976L171.11 -4.63874Z" fill="#D6975A"/>
<path d="M267.284 29.4208H247.586L247.484 29.2372L237.74 12.3604L247.586 -4.69995H267.284L267.386 -4.51636L277.13 12.3604L267.284 29.4208ZM248.007 28.6932H266.863L276.294 12.3672L266.863 -3.96559H248.007L238.576 12.3672L248.007 28.6932Z" fill="#D6975A"/>
<path d="M248.116 29.2372L247.484 28.87L257.017 12.3604L247.484 -4.14918L248.116 -4.51636L257.853 12.3604L248.116 29.2372Z" fill="#D6975A"/>
<path d="M276.716 12H257.438V12.7276H276.716V12Z" fill="#D6975A"/>
<path d="M248.429 29.4208H228.315L228.213 29.2372L208.617 -4.69995H228.907L229.009 -4.51636L248.429 29.4208ZM228.73 28.6932H247.164L228.485 -3.96559H209.875L228.73 28.6932Z" fill="#D6975A"/>
<path d="M238.155 13.0948L228.105 -4.63874L247.62 -38.7527L257.853 -21.1279L257.751 -20.9443L238.155 13.0948ZM228.941 -4.63874L238.161 11.6261L257.017 -21.1279L247.627 -37.2976L228.941 -4.63874Z" fill="#D6975A"/>
<path d="M325.116 29.4208H305.417L305.315 29.2372L295.571 12.3604L305.417 -4.69995H325.116L325.218 -4.51636L334.962 12.3604L325.116 29.4208ZM305.839 28.6932H324.694L334.125 12.3672L324.694 -3.96559H305.839L296.408 12.3672L305.839 28.6932Z" fill="#D6975A"/>
<path d="M305.941 29.2372L305.315 28.87L314.848 12.3604L305.315 -4.14918L305.941 -4.51636L315.685 12.3604L305.941 29.2372Z" fill="#D6975A"/>
<path d="M334.54 12H315.263V12.7276H334.54V12Z" fill="#D6975A"/>
<path d="M306.26 29.4208H286.147L286.045 29.2372L266.448 -4.69995H286.738L286.84 -4.51636L306.26 29.4208ZM286.562 28.6932H305.002L286.317 -3.96559H267.706L286.562 28.6932Z" fill="#D6975A"/>
<path d="M295.986 13.0948L285.936 -4.63874L305.451 -38.7527L315.684 -21.1279L315.582 -20.9443L295.986 13.0948ZM286.772 -4.63874L295.993 11.6261L314.848 -21.1279L305.458 -37.2976L286.772 -4.63874Z" fill="#D6975A"/>
<path d="M364.084 29.4208H343.971L343.869 29.2372L324.279 -4.69995H344.569L344.671 -4.51636L364.084 29.4208ZM344.393 28.6932H362.827L344.148 -3.96559H325.537L344.393 28.6932Z" fill="#D6975A"/>
<path d="M-2.58771 96.7037H-41.985L-31.9283 79.283H7.46901L-2.58771 96.7037ZM-40.7203 95.9762H-3.00929L6.20427 80.0105H-31.5067L-40.7203 95.9762Z" fill="#D6975A"/>
<path d="M35.9664 130.192H16.2677L16.1657 130.008L6.415 113.138L16.2609 96.0781H35.9596L36.0616 96.2617L45.8055 113.138L35.9664 130.192ZM16.6893 129.465H35.5448L44.9759 113.138L35.5448 96.8057H16.6893L7.25816 113.138L16.6893 129.465Z" fill="#D6975A"/>
<path d="M16.7913 130.008L16.1589 129.648L25.6921 113.139L16.1589 96.6221L16.7913 96.2617L26.5352 113.139L16.7913 130.008Z" fill="#D6975A"/>
<path d="M45.3907 112.771H26.1137V113.499H45.3907V112.771Z" fill="#D6975A"/>
<path d="M55.2366 96.7037H15.8461L25.9028 79.283H65.3001L55.2366 96.7037ZM17.1109 95.9762H54.8218L64.0422 80.0105H26.3244L17.1109 95.9762Z" fill="#D6975A"/>
<path d="M17.1041 130.192H-3.00936L-3.11135 130.008L-22.7012 96.0781H-2.41099L-2.30899 96.2617L17.1041 130.192ZM-2.58778 129.465H15.8461L-2.83257 96.8057H-21.4433L-2.58778 129.465Z" fill="#D6975A"/>
<path d="M6.83655 113.873L-3.22016 96.1393L16.2949 62.0254L26.5352 79.6433L26.4332 79.8269L6.83655 113.873ZM-2.377 96.1393L6.84335 112.404L25.6988 79.6501L16.3085 63.4805L-2.377 96.1393Z" fill="#D6975A"/>
<path d="M93.7908 130.192H74.0921L73.9901 130.008L64.2462 113.138L74.0921 96.0781H93.7908L93.8927 96.2617L103.637 113.138L93.7908 130.192ZM74.5205 129.465H93.376L102.807 113.138L93.376 96.8057H74.5205L65.0893 113.138L74.5205 129.465Z" fill="#D6975A"/>
<path d="M74.6225 130.008L73.9901 129.648L83.5233 113.139L73.9901 96.6221L74.6225 96.2617L84.3664 113.139L74.6225 130.008Z" fill="#D6975A"/>
<path d="M103.222 112.771H83.9449V113.499H103.222V112.771Z" fill="#D6975A"/>
<path d="M113.068 96.7037H73.6705L83.7272 79.283H123.125L113.068 96.7037ZM74.9353 95.9762H112.646L121.867 80.0105H84.1556L74.9353 95.9762Z" fill="#D6975A"/>
<path d="M74.9353 130.192H54.8218L54.7198 130.008L35.13 96.0781H55.4202L55.5222 96.2617L74.9353 130.192ZM55.2434 129.465H73.6841L55.0054 96.8057H36.3879L55.2434 129.465Z" fill="#D6975A"/>
<path d="M64.6677 113.873L54.611 96.1393L74.1261 62.0254L84.3596 79.6501L84.2576 79.8337L64.6677 113.873ZM55.4474 96.1393L64.6677 112.404L83.5232 79.6501L74.1329 63.4805L55.4474 96.1393Z" fill="#D6975A"/>
<path d="M151.622 130.192H131.923L131.821 130.008L122.077 113.132L131.923 96.0713H151.622L151.724 96.2549L161.468 113.132L151.622 130.192ZM132.345 129.464H151.2L160.632 113.138L151.2 96.8057H132.345L122.914 113.138L132.345 129.464Z" fill="#D6975A"/>
<path d="M132.454 130.008L131.821 129.648L141.355 113.139L131.821 96.6221L132.454 96.2617L142.198 113.139L132.454 130.008Z" fill="#D6975A"/>
<path d="M161.053 112.771H141.776V113.499H161.053V112.771Z" fill="#D6975A"/>
<path d="M170.899 96.7037H131.502L141.559 79.283H180.956L170.899 96.7037ZM132.767 95.9762H170.478L179.698 80.0105H141.987L132.767 95.9762Z" fill="#D6975A"/>
<path d="M132.767 130.192H112.653L112.551 130.008L92.9613 96.0781H113.251L113.353 96.2617L132.767 130.192ZM113.075 129.465H131.509L112.83 96.8057H94.2192L113.075 129.465Z" fill="#D6975A"/>
<path d="M122.499 113.873L112.442 96.1393L131.957 62.0254L142.191 79.6501L142.089 79.8337L122.499 113.873ZM113.279 96.1393L122.499 112.404L141.355 79.6501L131.964 63.4805L113.279 96.1393Z" fill="#D6975A"/>
<path d="M209.453 130.192H189.754L189.652 130.008L179.909 113.132L189.754 96.0713H209.453L209.555 96.2549L219.299 113.132L209.453 130.192ZM190.176 129.464H209.032L218.463 113.138L209.032 96.8057H190.176L180.752 113.138L190.176 129.464Z" fill="#D6975A"/>
<path d="M190.285 130.008L189.653 129.648L199.186 113.139L189.653 96.6221L190.285 96.2617L200.029 113.139L190.285 130.008Z" fill="#D6975A"/>
<path d="M218.884 112.771H199.607V113.499H218.884V112.771Z" fill="#D6975A"/>
<path d="M228.73 96.7037H189.333L199.39 79.283H238.787L228.73 96.7037ZM190.598 95.9762H228.309L237.529 80.0105H199.818L190.598 95.9762Z" fill="#D6975A"/>
<path d="M190.598 130.192H170.484L170.382 130.008L150.792 96.0781H171.083L171.185 96.2617L190.598 130.192ZM170.899 129.465H189.333L170.654 96.8057H152.044L170.899 129.465Z" fill="#D6975A"/>
<path d="M180.33 113.873L170.273 96.1393L189.788 62.0254L200.029 79.6501L199.927 79.8337L180.33 113.873ZM171.11 96.1393L180.33 112.404L199.186 79.6501L189.795 63.4805L171.11 96.1393Z" fill="#D6975A"/>
<path d="M267.284 130.192H247.586L247.484 130.008L237.74 113.132L247.586 96.0713H267.284L267.386 96.2549L277.13 113.132L267.284 130.192ZM248.007 129.464H266.863L276.294 113.138L266.863 96.8057H248.007L238.576 113.138L248.007 129.464Z" fill="#D6975A"/>
<path d="M248.116 130.008L247.484 129.648L257.017 113.139L247.484 96.6221L248.116 96.2617L257.853 113.139L248.116 130.008Z" fill="#D6975A"/>
<path d="M276.716 112.771H257.438V113.499H276.716V112.771Z" fill="#D6975A"/>
<path d="M286.562 96.7037H247.171L257.228 79.283H296.625L286.562 96.7037ZM248.429 95.9762H286.14L295.36 80.0105H257.649L248.429 95.9762Z" fill="#D6975A"/>
<path d="M248.429 130.192H228.316L228.214 130.008L208.624 96.0781H228.914L229.016 96.2617L248.429 130.192ZM228.73 129.465H247.164L228.486 96.8057H209.875L228.73 129.465Z" fill="#D6975A"/>
<path d="M238.155 113.873L228.098 96.1393L247.613 62.0254L257.846 79.6501L257.744 79.8337L238.155 113.873ZM228.941 96.1393L238.161 112.404L257.017 79.6501L247.627 63.4805L228.941 96.1393Z" fill="#D6975A"/>
<path d="M325.116 130.192H305.417L305.315 130.008L295.571 113.132L305.417 96.0713H325.116L325.218 96.2549L334.962 113.132L325.116 130.192ZM305.839 129.464H324.694L334.125 113.138L324.694 96.8057H305.839L296.407 113.138L305.839 129.464Z" fill="#D6975A"/>
<path d="M305.941 130.008L305.315 129.648L314.848 113.139L305.315 96.6221L305.941 96.2617L315.685 113.139L305.941 130.008Z" fill="#D6975A"/>
<path d="M334.54 112.771H315.263V113.499H334.54V112.771Z" fill="#D6975A"/>
<path d="M344.393 96.7037H304.995L315.052 79.283H354.449L344.393 96.7037ZM306.26 95.9762H343.971L353.191 80.0105H315.48L306.26 95.9762Z" fill="#D6975A"/>
<path d="M306.26 130.192H286.147L286.045 130.008L266.455 96.0781H286.745L286.847 96.2617L306.26 130.192ZM286.561 129.465H305.002L286.323 96.8057H267.713L286.561 129.465Z" fill="#D6975A"/>
<path d="M295.986 113.873L285.929 96.1393L305.444 62.0254L315.678 79.6501L315.576 79.8337L295.986 113.873ZM286.772 96.1393L295.993 112.404L314.848 79.6501L305.458 63.4805L286.772 96.1393Z" fill="#D6975A"/>
<path d="M364.084 130.192H343.971L343.869 130.008L324.279 96.0781H344.569L344.671 96.2617L364.084 130.192ZM344.393 129.465H362.827L344.148 96.8057H325.537L344.393 129.465Z" fill="#D6975A"/>
<path d="M-2.58771 197.482H-41.985L-31.9283 180.061H7.46901L-2.58771 197.482ZM-40.7203 196.747H-3.00929L6.20427 180.782H-31.5067L-40.7203 196.747Z" fill="#D6975A"/>
<path d="M35.9664 230.97H16.2677L16.1657 230.786L6.415 213.909L16.2609 196.849H35.9596L36.0616 197.033L45.8123 213.909L35.9664 230.97ZM16.6893 230.242H35.5448L44.9691 213.909L35.538 197.577H16.6893L7.25816 213.909L16.6893 230.242Z" fill="#D6975A"/>
<path d="M16.7913 230.786L16.1589 230.426L25.6921 213.91L16.1589 197.4L16.7913 197.033L26.5352 213.91L16.7913 230.786Z" fill="#D6975A"/>
<path d="M45.3907 213.549H26.1137V214.277H45.3907V213.549Z" fill="#D6975A"/>
<path d="M55.2366 197.482H15.8461L25.9028 180.061H65.3001L55.2366 197.482ZM17.1109 196.747H54.8218L64.0422 180.782H26.3244L17.1109 196.747Z" fill="#D6975A"/>
<path d="M17.1041 230.97H-3.00936L-3.11135 230.786L-22.7012 196.849H-2.41099L-2.30899 197.033L17.1041 230.97ZM-2.58778 230.242H15.8461L-2.83257 197.583H-21.4433L-2.58778 230.242Z" fill="#D6975A"/>
<path d="M6.83655 214.644L-3.22016 196.91L16.2949 162.796L26.5352 180.421L26.4332 180.605L6.83655 214.644ZM-2.377 196.91L6.84335 213.175L25.6988 180.421L16.3085 164.252L-2.377 196.91Z" fill="#D6975A"/>
<path d="M93.7908 230.97H74.0921L73.9901 230.786L64.2462 213.909L74.0921 196.849H93.7908L93.8927 197.033L103.643 213.909L93.7908 230.97ZM74.5205 230.242H93.376L102.8 213.909L93.3692 197.577H74.5137L65.0893 213.909L74.5205 230.242Z" fill="#D6975A"/>
<path d="M74.6225 230.786L73.9901 230.426L83.5233 213.91L73.9901 197.4L74.6225 197.033L84.3664 213.91L74.6225 230.786Z" fill="#D6975A"/>
<path d="M103.222 213.549H83.9449V214.277H103.222V213.549Z" fill="#D6975A"/>
<path d="M113.068 197.482H73.6705L83.7272 180.061H123.125L113.068 197.482ZM74.9353 196.747H112.646L121.867 180.782H84.1556L74.9353 196.747Z" fill="#D6975A"/>
<path d="M74.9353 230.97H54.8218L54.7198 230.786L35.13 196.849H55.4202L55.5222 197.033L74.9353 230.97ZM55.2434 230.242H73.6841L55.0054 197.583H36.3879L55.2434 230.242Z" fill="#D6975A"/>
<path d="M64.6677 214.644L54.611 196.91L74.1261 162.796L84.3596 180.421L84.2576 180.605L64.6677 214.644ZM55.4474 196.91L64.6677 213.175L83.5232 180.421L74.1329 164.252L55.4474 196.91Z" fill="#D6975A"/>
<path d="M151.622 230.97H131.923L131.821 230.786L122.077 213.909L131.923 196.849H151.622L151.724 197.033L161.475 213.909L151.622 230.97ZM132.345 230.242H151.2L160.632 213.909L151.2 197.577H132.345L122.921 213.909L132.345 230.242Z" fill="#D6975A"/>
<path d="M132.454 230.786L131.821 230.426L141.355 213.91L131.821 197.4L132.454 197.033L142.198 213.91L132.454 230.786Z" fill="#D6975A"/>
<path d="M161.053 213.549H141.776V214.277H161.053V213.549Z" fill="#D6975A"/>
<path d="M170.899 197.482H131.502L141.559 180.061H180.956L170.899 197.482ZM132.767 196.747H170.478L179.698 180.782H141.987L132.767 196.747Z" fill="#D6975A"/>
<path d="M132.767 230.97H112.653L112.551 230.786L92.9613 196.849H113.251L113.353 197.033L132.767 230.97ZM113.075 230.242H131.509L112.83 197.583H94.2192L113.075 230.242Z" fill="#D6975A"/>
<path d="M122.499 214.644L112.442 196.91L131.957 162.796L142.191 180.421L142.089 180.605L122.499 214.644ZM113.279 196.91L122.499 213.175L141.355 180.421L131.964 164.252L113.279 196.91Z" fill="#D6975A"/>
<path d="M209.453 230.97H189.754L189.652 230.786L179.909 213.909L189.754 196.849H209.453L209.555 197.033L219.306 213.909L209.453 230.97ZM190.176 230.242H209.032L218.463 213.909L209.032 197.577H190.176L180.752 213.909L190.176 230.242Z" fill="#D6975A"/>
<path d="M190.285 230.786L189.653 230.426L199.186 213.91L189.653 197.4L190.285 197.033L200.029 213.91L190.285 230.786Z" fill="#D6975A"/>
<path d="M218.884 213.549H199.607V214.277H218.884V213.549Z" fill="#D6975A"/>
<path d="M228.73 197.482H189.333L199.39 180.061H238.787L228.73 197.482ZM190.598 196.747H228.309L237.529 180.782H199.818L190.598 196.747Z" fill="#D6975A"/>
<path d="M190.598 230.97H170.484L170.382 230.786L150.792 196.849H171.083L171.185 197.033L190.598 230.97ZM170.899 230.242H189.333L170.654 197.583H152.044L170.899 230.242Z" fill="#D6975A"/>
<path d="M180.33 214.644L170.273 196.91L189.788 162.796L200.029 180.421L199.927 180.605L180.33 214.644ZM171.11 196.91L180.33 213.175L199.186 180.421L189.795 164.252L171.11 196.91Z" fill="#D6975A"/>
<path d="M267.284 230.97H247.586L247.484 230.786L237.74 213.909L247.586 196.849H267.284L267.386 197.033L277.13 213.909L267.284 230.97ZM248.007 230.242H266.863L276.294 213.909L266.863 197.577H248.007L238.583 213.909L248.007 230.242Z" fill="#D6975A"/>
<path d="M248.116 230.786L247.484 230.426L257.017 213.91L247.484 197.4L248.116 197.033L257.853 213.91L248.116 230.786Z" fill="#D6975A"/>
<path d="M276.716 213.549H257.438V214.277H276.716V213.549Z" fill="#D6975A"/>
<path d="M286.562 197.482H247.171L257.228 180.061H296.625L286.562 197.482ZM248.429 196.747H286.14L295.36 180.782H257.649L248.429 196.747Z" fill="#D6975A"/>
<path d="M248.429 230.97H228.316L228.214 230.786L208.624 196.849H228.914L229.016 197.033L248.429 230.97ZM228.73 230.242H247.164L228.486 197.583H209.875L228.73 230.242Z" fill="#D6975A"/>
<path d="M238.155 214.644L228.105 196.91L247.62 162.796L257.853 180.421L257.751 180.605L238.155 214.644ZM228.941 196.91L238.161 213.175L257.017 180.421L247.627 164.252L228.941 196.91Z" fill="#D6975A"/>
<path d="M325.116 230.97H305.417L305.315 230.786L295.571 213.909L305.417 196.849H325.116L325.218 197.033L334.962 213.909L325.116 230.97ZM305.839 230.242H324.694L334.125 213.909L324.694 197.577H305.839L296.407 213.909L305.839 230.242Z" fill="#D6975A"/>
<path d="M305.941 230.786L305.315 230.426L314.848 213.91L305.315 197.4L305.941 197.033L315.685 213.91L305.941 230.786Z" fill="#D6975A"/>
<path d="M334.54 213.549H315.263V214.277H334.54V213.549Z" fill="#D6975A"/>
<path d="M344.393 197.482H304.995L315.052 180.061H354.449L344.393 197.482ZM306.26 196.747H343.971L353.191 180.782H315.48L306.26 196.747Z" fill="#D6975A"/>
<path d="M306.26 230.97H286.147L286.045 230.786L266.455 196.849H286.745L286.847 197.033L306.26 230.97ZM286.561 230.242H305.002L286.323 197.583H267.713L286.561 230.242Z" fill="#D6975A"/>
<path d="M295.986 214.644L285.936 196.91L305.451 162.796L315.684 180.421L315.582 180.605L295.986 214.644ZM286.772 196.91L295.993 213.175L314.848 180.421L305.458 164.252L286.772 196.91Z" fill="#D6975A"/>
<path d="M364.084 230.97H343.971L343.869 230.786L324.279 196.849H344.569L344.671 197.033L364.084 230.97ZM344.393 230.242H362.827L344.148 197.583H325.537L344.393 230.242Z" fill="#D6975A"/>
<path d="M-2.58771 298.253H-41.985L-31.9283 280.832H7.46901L-2.58771 298.253ZM-40.7203 297.525H-3.00929L6.20427 281.56H-31.5067L-40.7203 297.525Z" fill="#D6975A"/>
<path d="M35.9664 331.741H16.2677L16.1657 331.558L6.415 314.688L16.2609 297.627H35.9596L36.0616 297.811L45.8055 314.688L35.9664 331.741ZM16.6893 331.014H35.5448L44.9759 314.681L35.5448 298.348H16.6893L7.25816 314.681L16.6893 331.014Z" fill="#D6975A"/>
<path d="M16.7913 331.564L16.1589 331.197L25.6921 314.688L16.1589 298.171L16.7913 297.811L26.5352 314.688L16.7913 331.564Z" fill="#D6975A"/>
<path d="M45.3907 314.321H26.1137V315.048H45.3907V314.321Z" fill="#D6975A"/>
<path d="M55.2366 298.253H15.8461L25.9028 280.832H65.3001L55.2366 298.253ZM17.1109 297.525H54.8218L64.0422 281.56H26.3244L17.1109 297.525Z" fill="#D6975A"/>
<path d="M17.1041 331.741H-3.00936L-3.11135 331.558L-22.7012 297.62H-2.41099L-2.30899 297.804L17.1041 331.741ZM-2.58778 331.014H15.8461L-2.83257 298.355H-21.4433L-2.58778 331.014Z" fill="#D6975A"/>
<path d="M6.83655 315.422L-3.22016 297.688L16.2949 263.574L26.5352 281.192L26.4332 281.376L6.83655 315.422ZM-2.377 297.688L6.84335 313.953L25.6988 281.199L16.3085 265.03L-2.377 297.688Z" fill="#D6975A"/>
<path d="M93.7908 331.741H74.0921L73.9901 331.558L64.2462 314.681L74.0921 297.62H93.7908L93.8927 297.804L103.637 314.681L93.7908 331.741ZM74.5205 331.014H93.376L102.807 314.681L93.376 298.348H74.5205L65.0893 314.688L74.5205 331.014Z" fill="#D6975A"/>
<path d="M74.6225 331.564L73.9901 331.197L83.5233 314.688L73.9901 298.171L74.6225 297.811L84.3664 314.688L74.6225 331.564Z" fill="#D6975A"/>
<path d="M103.222 314.32H83.9449V315.048H103.222V314.32Z" fill="#D6975A"/>
<path d="M113.068 298.253H73.6705L83.7272 280.832H123.125L113.068 298.253ZM74.9353 297.525H112.646L121.867 281.56H84.1556L74.9353 297.525Z" fill="#D6975A"/>
<path d="M74.9353 331.741H54.8218L54.7198 331.558L35.13 297.62H55.4202L55.5222 297.804L74.9353 331.741ZM55.2434 331.014H73.6841L55.0054 298.355H36.3879L55.2434 331.014Z" fill="#D6975A"/>
<path d="M64.6677 315.422L54.611 297.688L74.1261 263.574L84.3596 281.199L84.2576 281.383L64.6677 315.422ZM55.4474 297.688L64.6677 313.953L83.5232 281.199L74.1329 265.03L55.4474 297.688Z" fill="#D6975A"/>
<path d="M151.622 331.741H131.923L131.821 331.558L122.077 314.681L131.923 297.62H151.622L151.724 297.804L161.468 314.681L151.622 331.741ZM132.345 331.014H151.2L160.632 314.681L151.2 298.348H132.345L122.914 314.681L132.345 331.014Z" fill="#D6975A"/>
<path d="M132.454 331.564L131.821 331.197L141.355 314.688L131.821 298.171L132.454 297.811L142.198 314.688L132.454 331.564Z" fill="#D6975A"/>
<path d="M161.053 314.32H141.776V315.048H161.053V314.32Z" fill="#D6975A"/>
<path d="M170.899 298.253H131.502L141.559 280.832H180.956L170.899 298.253ZM132.767 297.525H170.478L179.698 281.56H141.987L132.767 297.525Z" fill="#D6975A"/>
<path d="M132.767 331.741H112.653L112.551 331.558L92.9613 297.62H113.251L113.353 297.804L132.767 331.741ZM113.075 331.014H131.509L112.83 298.355H94.2192L113.075 331.014Z" fill="#D6975A"/>
<path d="M122.499 315.422L112.442 297.688L131.957 263.574L142.191 281.199L142.089 281.383L122.499 315.422ZM113.279 297.688L122.499 313.953L141.355 281.199L131.964 265.03L113.279 297.688Z" fill="#D6975A"/>
<path d="M209.453 331.741H189.754L189.652 331.558L179.909 314.681L189.754 297.62H209.453L209.555 297.804L219.299 314.681L209.453 331.741ZM190.176 331.014H209.032L218.463 314.681L209.032 298.348H190.176L180.745 314.681L190.176 331.014Z" fill="#D6975A"/>
<path d="M190.285 331.564L189.653 331.197L199.186 314.688L189.653 298.171L190.285 297.811L200.029 314.688L190.285 331.564Z" fill="#D6975A"/>
<path d="M218.884 314.32H199.607V315.048H218.884V314.32Z" fill="#D6975A"/>
<path d="M228.73 298.253H189.333L199.39 280.832H238.787L228.73 298.253ZM190.598 297.525H228.309L237.529 281.56H199.818L190.598 297.525Z" fill="#D6975A"/>
<path d="M190.598 331.741H170.484L170.382 331.558L150.792 297.62H171.083L171.185 297.804L190.598 331.741ZM170.899 331.014H189.333L170.654 298.355H152.044L170.899 331.014Z" fill="#D6975A"/>
<path d="M180.33 315.422L170.273 297.688L189.788 263.574L200.029 281.199L199.927 281.383L180.33 315.422ZM171.11 297.688L180.33 313.953L199.186 281.199L189.795 265.03L171.11 297.688Z" fill="#D6975A"/>
<path d="M267.284 331.741H247.586L247.484 331.558L237.74 314.681L247.586 297.62H267.284L267.386 297.804L277.13 314.681L267.284 331.741ZM248.007 331.014H266.863L276.294 314.681L266.863 298.348H248.007L238.576 314.681L248.007 331.014Z" fill="#D6975A"/>
<path d="M248.116 331.564L247.484 331.197L257.017 314.688L247.484 298.171L248.116 297.811L257.853 314.688L248.116 331.564Z" fill="#D6975A"/>
<path d="M276.716 314.32H257.438V315.048H276.716V314.32Z" fill="#D6975A"/>
<path d="M286.562 298.253H247.171L257.228 280.832H296.625L286.562 298.253ZM248.429 297.525H286.14L295.36 281.56H257.649L248.429 297.525Z" fill="#D6975A"/>
<path d="M248.429 331.741H228.316L228.214 331.558L208.624 297.62H228.914L229.016 297.804L248.429 331.741ZM228.73 331.014H247.164L228.486 298.355H209.875L228.73 331.014Z" fill="#D6975A"/>
<path d="M238.155 315.422L228.098 297.688L247.613 263.574L257.846 281.199L257.744 281.383L238.155 315.422ZM228.941 297.688L238.161 313.953L257.017 281.199L247.627 265.03L228.941 297.688Z" fill="#D6975A"/>
<path d="M325.116 331.741H305.417L305.315 331.558L295.571 314.681L305.417 297.62H325.116L325.218 297.804L334.962 314.681L325.116 331.741ZM305.839 331.014H324.694L334.125 314.681L324.694 298.348H305.839L296.407 314.681L305.839 331.014Z" fill="#D6975A"/>
<path d="M305.941 331.564L305.315 331.197L314.848 314.688L305.315 298.171L305.941 297.811L315.685 314.688L305.941 331.564Z" fill="#D6975A"/>
<path d="M334.54 314.32H315.263V315.048H334.54V314.32Z" fill="#D6975A"/>
<path d="M344.393 298.253H304.995L315.052 280.832H354.449L344.393 298.253ZM306.26 297.525H343.971L353.191 281.56H315.48L306.26 297.525Z" fill="#D6975A"/>
<path d="M306.26 331.741H286.147L286.045 331.558L266.455 297.62H286.745L286.847 297.804L306.26 331.741ZM286.561 331.014H305.002L286.323 298.355H267.713L286.561 331.014Z" fill="#D6975A"/>
<path d="M295.986 315.422L285.929 297.688L305.444 263.574L315.678 281.199L315.576 281.383L295.986 315.422ZM286.772 297.688L295.993 313.953L314.848 281.199L305.458 265.03L286.772 297.688Z" fill="#D6975A"/>
<path d="M364.084 331.741H343.971L343.869 331.558L324.279 297.62H344.569L344.671 297.804L364.084 331.741ZM344.393 331.014H362.827L344.148 298.355H325.537L344.393 331.014Z" fill="#D6975A"/>
</svg>
